<?xml version="1.0" encoding="UTF-8" standalone="no"?>
<!-- Created with Inkscape (http://www.inkscape.org/) -->

<svg
   xmlns:dc="http://purl.org/dc/elements/1.1/"
   xmlns:cc="http://creativecommons.org/ns#"
   xmlns:rdf="http://www.w3.org/1999/02/22-rdf-syntax-ns#"
   xmlns:svg="http://www.w3.org/2000/svg"
   xmlns="http://www.w3.org/2000/svg"
   xmlns:xlink="http://www.w3.org/1999/xlink"
   xmlns:sodipodi="http://sodipodi.sourceforge.net/DTD/sodipodi-0.dtd"
   xmlns:inkscape="http://www.inkscape.org/namespaces/inkscape"
   width="500mm"
   height="500mm"
   viewBox="0 0 1771.6535 1771.6535"
   id="svg2"
   version="1.1"
   inkscape:version="0.91 r13725"
   sodipodi:docname="logo1.svg">
  <defs
     id="defs4" />
  <sodipodi:namedview
     id="base"
     pagecolor="#ffffff"
     bordercolor="#666666"
     borderopacity="1.0"
     inkscape:pageopacity="0"
     inkscape:pageshadow="2"
     inkscape:zoom="0.35"
     inkscape:cx="784.57901"
     inkscape:cy="959.52376"
     inkscape:document-units="px"
     inkscape:current-layer="layer1"
     showgrid="false"
     inkscape:window-width="1366"
     inkscape:window-height="664"
     inkscape:window-x="0"
     inkscape:window-y="25"
     inkscape:window-maximized="1" />
  <metadata
     id="metadata7">
    <rdf:RDF>
      <cc:Work
         rdf:about="">
        <dc:format>image/svg+xml</dc:format>
        <dc:type
           rdf:resource="http://purl.org/dc/dcmitype/StillImage" />
        <dc:title></dc:title>
      </cc:Work>
    </rdf:RDF>
  </metadata>
  <g
     inkscape:label="Calque 1"
     inkscape:groupmode="layer"
     id="layer1"
     transform="translate(0,719.29134)">
    <image
       sodipodi:absref="/home/kaze/Images/Logo/logo_circle_lion_1_1.png"
       xlink:href="logo_circle_lion_1_1.png"
       width="499.99994"
       height="499.99994"
       preserveAspectRatio="none"
       style="image-rendering:optimizeQuality"
       id="image3528"
       x="-821.42847"
       y="-77.637863" />
    <g
       id="g3583"
       transform="matrix(4.4532104,0,0,4.4461494,3433.5607,-603.1645)">
      <path
         style="fill:#fbfcde"
         d="m -596.4285,367.25938 c -90.2464,-10.14641 -160.13848,-80.10662 -169.94221,-170.10787 -4.10815,-37.71405 2.12762,-76.7352 17.30518,-108.289393 29.45779,-61.242853 85.92285,-101.043259 153.84762,-108.442224 12.43882,-1.354947 34.14,-1.354947 46.57882,0 91.2719,9.9421398 161.28291,79.544097 171.15281,170.152807 4.10815,37.71406 -2.12763,76.7352 -17.30518,108.2894 -29.4578,61.24285 -85.92286,101.04325 -153.84763,108.44222 -11.16341,1.21602 -36.78828,1.19192 -47.78941,-0.0449 z m 39.78941,-7.95506 c 45.34667,-4.93955 86.28693,-24.55418 117.52791,-56.30805 30.96352,-31.47184 49.42017,-71.4133 53.83175,-116.4956 2.69041,-27.49358 -3.93661,-61.4152 -17.51203,-89.638554 -29.92009,-62.203952 -87.02772,-101.8509347 -156.49848,-108.649073 -35.89651,-3.512693 -80.25863,8.4835361 -114.13855,30.864895 -49.14031,32.462503 -79.3511,82.895602 -85.14907,142.145612 -4.68494,47.87574 16.5984,103.92813 53.83174,141.77272 39.00042,39.6407 97.37567,61.83412 148.10673,56.30805 z m -26.78941,-7.87713 c 0,-0.5142 0.43186,-2.07078 0.95969,-3.45907 0.83157,-2.1872 0.55086,-2.84413 -2.10272,-4.92087 l -3.06241,-2.39669 3.99351,-0.63859 c 3.43439,-0.54918 4.19951,-1.15504 5.46476,-4.32728 l 1.47125,-3.68868 1.18633,3.59461 c 1.25577,3.80504 2.60225,4.74242 6.92138,4.81843 l 2.66821,0.0469 -3.16274,2.51391 c -2.84292,2.2597 -3.07217,2.8297 -2.2671,5.63681 1.15166,4.0156 0.72252,4.33669 -2.92019,2.18489 -2.80093,-1.65455 -3.14825,-1.66066 -5.53405,-0.0974 -2.91138,1.90763 -3.61592,2.05045 -3.61592,0.73303 z m 44,-3 c 0,-0.5142 0.43186,-2.07078 0.95969,-3.45907 0.83157,-2.1872 0.55086,-2.84413 -2.10272,-4.92087 l -3.06241,-2.39669 3.99351,-0.63859 c 3.43439,-0.54918 4.19951,-1.15504 5.46476,-4.32728 l 1.47125,-3.68868 1.18633,3.59461 c 1.25577,3.80504 2.60224,4.74242 6.92137,4.81843 l 2.66821,0.0469 -3.16274,2.51391 c -2.84292,2.2597 -3.07217,2.8297 -2.2671,5.63681 1.15166,4.0156 0.72252,4.33669 -2.92018,2.18489 -2.80093,-1.65455 -3.14825,-1.66066 -5.53405,-0.0974 -2.91138,1.90763 -3.61592,2.05045 -3.61592,0.73303 z m -84.99999,-1 c 0,-0.5142 0.43186,-2.07078 0.95969,-3.45907 0.83157,-2.1872 0.55086,-2.84413 -2.10272,-4.92087 l -3.06241,-2.39669 3.99351,-0.63859 c 3.43439,-0.54918 4.19951,-1.15504 5.46476,-4.32728 l 1.47125,-3.68868 1.18633,3.59461 c 1.25577,3.80504 2.60225,4.74242 6.92137,4.81843 l 2.66821,0.0469 -3.16274,2.51391 c -2.84292,2.2597 -3.07216,2.8297 -2.2671,5.63681 1.15166,4.0156 0.72252,4.33669 -2.92018,2.18489 -2.80093,-1.65455 -3.14825,-1.66066 -5.53405,-0.0974 -2.91138,1.90763 -3.61592,2.05045 -3.61592,0.73303 z m 123.99998,-11 c 0,-0.5142 0.43186,-2.07078 0.95969,-3.45907 0.83157,-2.1872 0.55086,-2.84413 -2.10272,-4.92087 l -3.06241,-2.39669 3.99351,-0.63859 c 3.43439,-0.54918 4.19951,-1.15504 5.46476,-4.32728 l 1.47125,-3.68868 1.18633,3.59461 c 1.25577,3.80504 2.60225,4.74242 6.92138,4.81843 l 2.66821,0.0469 -3.16274,2.51391 c -2.84292,2.2597 -3.07217,2.8297 -2.2671,5.63681 1.15166,4.0156 0.72252,4.33669 -2.92019,2.18489 -2.80093,-1.65455 -3.14825,-1.66066 -5.53405,-0.0974 -2.91138,1.90763 -3.61592,2.05045 -3.61592,0.73303 z m -157.99998,-3 c 0,-0.5142 0.43186,-2.07078 0.95969,-3.45907 0.83157,-2.1872 0.55086,-2.84413 -2.10272,-4.92087 l -3.06241,-2.39669 3.99351,-0.63859 c 3.43439,-0.54918 4.19951,-1.15504 5.46476,-4.32728 l 1.47125,-3.68868 1.18633,3.59461 c 1.29375,3.92011 2.61474,4.77147 7.40351,4.77147 l 3.15035,0 -3.66506,2.49047 c -3.41333,2.31942 -3.60216,2.70981 -2.74924,5.68377 1.1727,4.08896 0.75461,4.41411 -2.9,2.25528 -2.80093,-1.65455 -3.14825,-1.66066 -5.53405,-0.0974 -2.91138,1.90758 -3.61592,2.0504 -3.61592,0.73298 z M -533.616,320.67898 c 0.72187,-0.28887 1.58438,-0.25335 1.91667,0.0789 0.33229,0.33229 -0.25834,0.56864 -1.3125,0.52522 -1.16495,-0.048 -1.4019,-0.28494 -0.60417,-0.60416 z m 3.99999,-1 c 0.72187,-0.28887 1.58438,-0.25335 1.91667,0.0789 0.33229,0.33229 -0.25834,0.56864 -1.3125,0.52522 -1.16494,-0.048 -1.40189,-0.28494 -0.60417,-0.60416 z m 40,-2 c 0.72187,-0.28887 1.58438,-0.25335 1.91667,0.0789 0.33229,0.33229 -0.25834,0.56864 -1.3125,0.52522 -1.16495,-0.048 -1.4019,-0.28494 -0.60417,-0.60416 z m -29.04405,-1.48534 c 0.5811,-0.5811 1.64682,-0.85979 2.36826,-0.61931 0.74895,0.24965 0.29565,0.70294 -1.05655,1.05655 -1.66335,0.43497 -2.05378,0.30483 -1.31171,-0.43724 z m -105.01843,-0.49383 c 0.6875,-0.27741 1.8125,-0.27741 2.5,0 0.6875,0.27741 0.125,0.50439 -1.25,0.50439 -1.375,0 -1.9375,-0.22698 -1.25,-0.50439 z m 95.74998,-0.33772 c -0.33992,-0.55 -0.14148,-1 0.44098,-1 0.58246,0 1.05902,0.45 1.05902,1 0,0.55 -0.19844,1 -0.44098,1 -0.24254,0 -0.7191,-0.45 -1.05902,-1 z m 3.04677,-0.92432 c -0.31419,-0.50837 0.22175,-1.14486 1.19099,-1.41442 0.96923,-0.26956 -21.18775,-0.33499 -49.23775,-0.1454 -28.05,0.18959 -52.34999,0.35054 -53.99999,0.35768 -1.65,0.007 -8.18608,-0.22272 -14.52461,-0.51079 -6.33854,-0.28808 -15.77745,-0.049 -20.97537,0.53138 -6.13654,0.68512 -9.79253,0.71336 -10.42538,0.0805 -0.53605,-0.53604 -2.0826,-0.97463 -3.43678,-0.97463 -4.46409,0 -10.60772,-4.505 -13.21866,-9.69299 -1.33056,-2.64386 -5.21014,-7.83009 -8.62129,-11.52497 -24.32299,-26.34608 -39.14891,-57.97728 -43.79814,-93.44365 -12.13182,-92.54672 44.88668,-173.827065 135.44186,-193.0735219 11.57529,-2.4601947 14.39795,-2.6691347 36.05836,-2.6691347 21.66041,0 24.48307,0.20894 36.05836,2.6691347 72.94801,15.5042549 125.95332,72.0140799 135.44186,144.3967719 7.02425,53.58399 -8.96211,104.94231 -44.41666,142.69446 -3.69,3.92915 -7.87423,9.17374 -9.29828,11.65465 -2.66428,4.64159 -8.76429,8.98925 -12.61243,8.98925 -1.13015,0 -2.31245,0.41685 -2.62733,0.92633 -0.34437,0.5572 -1.80679,0.57233 -3.66996,0.038 -4.52996,-1.29917 -48.74089,-0.49899 -50.14752,0.90764 -1.36946,1.36946 -2.41926,1.4367 -3.18128,0.20373 z m 88.49258,-44.26098 c 23.33383,-31.26195 35.71659,-73.29645 32.12889,-109.06468 -2.18456,-21.77944 -7.13147,-39.5047 -16.25687,-58.24999 -23.19599,-47.648969 -66.53788,-80.993531 -119.853,-92.207469 -10.82194,-2.2762123 -14.97805,-2.6414393 -30.05836,-2.6414393 -15.08031,0 -19.23642,0.365227 -30.05836,2.6414393 -53.31512,11.213938 -96.65701,44.5585 -119.853,92.207469 -9.1254,18.74529 -14.07231,36.47055 -16.25687,58.24999 -3.92881,39.16901 11.01263,84.452 38.84101,117.7153 l 5.82723,6.96531 0.28916,-9.33843 0.28915,-9.33842 -5.40549,-8.12689 c -11.03964,-16.5975 -18.47017,-34.38826 -22.8156,-54.62688 -1.92449,-8.96322 -2.25445,-13.50039 -2.25445,-30.99999 0,-17.49961 0.32996,-22.03678 2.25445,-31 6.39044,-29.76317 18.83145,-53.320953 39.39924,-74.60481 21.81528,-22.574768 47.55884,-36.764636 79.09577,-43.597665 8.64444,-1.87297 13.25876,-2.198691 31.14776,-2.198691 17.889,0 22.50332,0.325721 31.14776,2.198691 31.53693,6.833029 57.28049,21.022897 79.09577,43.597665 20.56779,21.283857 33.0088,44.84164 39.39924,74.60481 1.92449,8.96322 2.25445,13.50039 2.25445,31 0,17.4996 -0.32996,22.03677 -2.25445,30.99999 -2.92516,13.6238 -7.28174,26.28818 -12.9001,37.5 -4.32971,8.64023 -14.59001,24.97859 -16.38163,26.08588 -0.47358,0.29268 -0.84259,4.66809 -0.82004,9.72313 l 0.041,9.19098 4.11051,-4.5 c 2.26079,-2.475 6.69185,-7.95839 9.84681,-12.1853 z m -8.79068,-18.10986 c 9.44096,-14.45489 16.85458,-32.81796 20.8745,-51.70483 1.79858,-8.45031 2.23484,-13.72092 2.23484,-26.99999 0,-13.27907 -0.43626,-18.54969 -2.23484,-27 -6.31084,-29.65036 -18.79722,-53.305833 -39.37963,-74.604811 -21.82742,-22.587327 -47.67658,-36.829296 -79.09577,-43.578985 -14.47472,-3.109559 -39.8208,-3.109559 -54.29552,0 -31.41919,6.749689 -57.26835,20.991658 -79.09577,43.578985 -20.58241,21.298978 -33.06879,44.954451 -39.37963,74.604811 -3.18038,14.94246 -3.18038,39.05754 0,53.99999 3.90918,18.36658 10.42286,34.82641 19.89299,50.26891 l 3.5378,5.76891 2.72493,-4.76891 c 1.70867,-2.99033 4.21951,-5.60805 6.73235,-7.01891 l 4.00741,-2.25 107.72768,0 107.72768,0 3.98421,2.23925 c 4.31071,2.42275 8.77862,8.94369 8.80341,12.84861 0.0169,2.65551 -0.0859,2.76121 5.23336,-5.38303 z m -142.24866,-35.70483 -14.5,-11.87628 -8.5,-0.0643 c -4.67499,-0.0354 -18.28749,-0.35988 -30.24999,-0.72111 -21.70341,-0.6554 -21.75,-0.66163 -21.75,-2.9099 0,-1.63094 2.4852,-4.26473 9,-9.53806 4.95,-4.00672 9,-7.53823 9,-7.84778 0,-0.30955 -8.325,-8.8787 -18.5,-19.04255 -13.09219,-13.07784 -18.5,-19.1404 -18.5,-20.73986 l 0,-2.26014 18.87157,0 18.87156,0 -8.41841,-26.75 c -4.63013,-14.712494 -8.68158,-28.437493 -9.00324,-30.499992 -0.53007,-3.39897 -0.37342,-3.75 1.67352,-3.75 1.24208,0 9.51383,4.43757 18.38167,9.861259 8.86783,5.423689 28.41391,17.300813 43.43574,26.393623 l 27.31241,16.53238 43.90257,-25.89364 c 24.14641,-14.241483 44.81832,-25.893622 45.93758,-25.893622 1.3575,0 2.03501,0.65538 2.03501,1.96855 0,1.542929 -13.59957,51.356272 -15.50705,56.800152 -0.35405,1.01045 3.21466,1.13133 17.53126,0.59386 17.4372,-0.65462 17.97579,-0.61591 17.97579,1.29212 0,1.22443 -7.19245,9.11649 -19.05286,20.90613 l -19.05286,18.93918 8.58505,7.99999 c 13.59008,12.66394 14.47191,12.12217 -21.18179,13.01346 l -29.70244,0.74252 -14.74766,12.37201 c -9.83473,8.2505 -15.51382,12.3514 -17.04754,12.31015 -1.39856,-0.0376 -7.98247,-4.7162 -16.79989,-11.93814 z m 47.5,-58.15834 c 8.84004,-13.57135 8.68877,-12.6431 1.25728,-7.71524 -4.80679,3.18741 -7.15997,5.53351 -8.67645,8.65034 -2.60709,5.35839 -2.62421,5.22498 0.66917,5.2145 2.26335,-0.007 3.45786,-1.09546 6.75,-6.1496 z m -53.62649,-1.16511 c -1.63815,-3.3718 -3.60701,-5.22975 -8.94465,-8.4408 l -6.84415,-4.11734 3.51532,6.1908 c 1.93342,3.40494 4.01159,7.2033 4.61816,8.4408 0.89045,1.8167 1.93603,2.25 5.42933,2.25 l 4.32649,0 -2.1005,-4.32346 z"
         id="path3597"
         inkscape:connector-curvature="0" />
      <path
         style="fill:#cccdb4"
         d="m -596.4285,367.25938 c -90.2464,-10.14641 -160.13848,-80.10662 -169.94221,-170.10787 -4.10815,-37.71405 2.12762,-76.7352 17.30518,-108.289393 29.45779,-61.242853 85.92285,-101.043259 153.84762,-108.442224 12.43882,-1.354947 34.14,-1.354947 46.57882,0 91.2719,9.9421398 161.28291,79.544097 171.15281,170.152807 4.10815,37.71406 -2.12763,76.7352 -17.30518,108.2894 -29.4578,61.24285 -85.92286,101.04325 -153.84763,108.44222 -11.16341,1.21602 -36.78828,1.19192 -47.78941,-0.0449 z m 39.78941,-7.95506 c 45.34667,-4.93955 86.28693,-24.55418 117.52791,-56.30805 30.96352,-31.47184 49.42017,-71.4133 53.83175,-116.4956 2.69041,-27.49358 -3.93661,-61.4152 -17.51203,-89.638554 -29.92009,-62.203952 -87.02772,-101.8509347 -156.49848,-108.649073 -35.89651,-3.512693 -80.25863,8.4835361 -114.13855,30.864895 -49.14031,32.462503 -79.3511,82.895602 -85.14907,142.145612 -4.68494,47.87574 16.5984,103.92813 53.83174,141.77272 39.00042,39.6407 97.37567,61.83412 148.10673,56.30805 z m -26.78941,-7.87713 c 0,-0.5142 0.43186,-2.07078 0.95969,-3.45907 0.83157,-2.1872 0.55086,-2.84413 -2.10272,-4.92087 l -3.06241,-2.39669 3.99351,-0.63859 c 3.43439,-0.54918 4.19951,-1.15504 5.46476,-4.32728 l 1.47125,-3.68868 1.18633,3.59461 c 1.25577,3.80504 2.60225,4.74242 6.92138,4.81843 l 2.66821,0.0469 -3.16274,2.51391 c -2.84292,2.2597 -3.07217,2.8297 -2.2671,5.63681 1.15166,4.0156 0.72252,4.33669 -2.92019,2.18489 -2.80093,-1.65455 -3.14825,-1.66066 -5.53405,-0.0974 -2.91138,1.90763 -3.61592,2.05045 -3.61592,0.73303 z m 44,-3 c 0,-0.5142 0.43186,-2.07078 0.95969,-3.45907 0.83157,-2.1872 0.55086,-2.84413 -2.10272,-4.92087 l -3.06241,-2.39669 3.99351,-0.63859 c 3.43439,-0.54918 4.19951,-1.15504 5.46476,-4.32728 l 1.47125,-3.68868 1.18633,3.59461 c 1.25577,3.80504 2.60224,4.74242 6.92137,4.81843 l 2.66821,0.0469 -3.16274,2.51391 c -2.84292,2.2597 -3.07217,2.8297 -2.2671,5.63681 1.15166,4.0156 0.72252,4.33669 -2.92018,2.18489 -2.80093,-1.65455 -3.14825,-1.66066 -5.53405,-0.0974 -2.91138,1.90763 -3.61592,2.05045 -3.61592,0.73303 z m -84.99999,-1 c 0,-0.5142 0.43186,-2.07078 0.95969,-3.45907 0.83157,-2.1872 0.55086,-2.84413 -2.10272,-4.92087 l -3.06241,-2.39669 3.99351,-0.63859 c 3.43439,-0.54918 4.19951,-1.15504 5.46476,-4.32728 l 1.47125,-3.68868 1.18633,3.59461 c 1.25577,3.80504 2.60225,4.74242 6.92137,4.81843 l 2.66821,0.0469 -3.16274,2.51391 c -2.84292,2.2597 -3.07216,2.8297 -2.2671,5.63681 1.15166,4.0156 0.72252,4.33669 -2.92018,2.18489 -2.80093,-1.65455 -3.14825,-1.66066 -5.53405,-0.0974 -2.91138,1.90763 -3.61592,2.05045 -3.61592,0.73303 z m 123.99998,-11 c 0,-0.5142 0.43186,-2.07078 0.95969,-3.45907 0.83157,-2.1872 0.55086,-2.84413 -2.10272,-4.92087 l -3.06241,-2.39669 3.99351,-0.63859 c 3.43439,-0.54918 4.19951,-1.15504 5.46476,-4.32728 l 1.47125,-3.68868 1.18633,3.59461 c 1.25577,3.80504 2.60225,4.74242 6.92138,4.81843 l 2.66821,0.0469 -3.16274,2.51391 c -2.84292,2.2597 -3.07217,2.8297 -2.2671,5.63681 1.15166,4.0156 0.72252,4.33669 -2.92019,2.18489 -2.80093,-1.65455 -3.14825,-1.66066 -5.53405,-0.0974 -2.91138,1.90763 -3.61592,2.05045 -3.61592,0.73303 z m -157.99998,-3 c 0,-0.5142 0.43186,-2.07078 0.95969,-3.45907 0.83157,-2.1872 0.55086,-2.84413 -2.10272,-4.92087 l -3.06241,-2.39669 3.99351,-0.63859 c 3.43439,-0.54918 4.19951,-1.15504 5.46476,-4.32728 l 1.47125,-3.68868 1.18633,3.59461 c 1.25577,3.80504 2.60225,4.74242 6.92138,4.81843 l 2.66821,0.0469 -3.16274,2.51391 c -2.84292,2.2597 -3.07217,2.8297 -2.2671,5.63681 1.15166,4.0156 0.72252,4.33669 -2.92019,2.18489 -2.80093,-1.65455 -3.14825,-1.66066 -5.53405,-0.0974 -2.91138,1.90763 -3.61592,2.05045 -3.61592,0.73303 z m -14.4418,-19.97093 c -0.37193,-0.60179 -1.79702,-1.09417 -3.16688,-1.09417 -5.08586,0 -13.19972,-6.61812 -14.93803,-12.18429 -0.39775,-1.27364 -3.5659,-5.33879 -7.04032,-9.03367 -24.0947,-25.62347 -39.25036,-57.87345 -43.9132,-93.44365 -12.13182,-92.54672 44.88668,-173.827065 135.44186,-193.0735219 11.57529,-2.4601947 14.39795,-2.6691347 36.05836,-2.6691347 21.66041,0 24.48307,0.20894 36.05836,2.6691347 72.94801,15.5042549 125.95332,72.0140799 135.44186,144.3967719 7.07867,53.99915 -8.79046,104.5545 -44.95934,143.22996 -4.14748,4.43493 -7.54089,8.50795 -7.54089,9.05115 0,1.6445 -6.10463,8.06 -9.18536,9.6531 -2.3057,1.19233 -8.47978,1.56237 -30.60155,1.83409 -15.2422,0.18722 -29.28809,0.62568 -31.21309,0.97434 -2.68825,0.48692 -3.03614,0.40515 -1.5,-0.35257 2.2847,-1.12694 -141.25619,-0.67871 -145.63276,0.45477 -1.55586,0.40295 -2.9094,0.23429 -3.30902,-0.41231 z m 20.99625,-26.09417 c 1.51844,-4.95 3.02852,-9 3.35574,-9 0.32722,0 1.73552,3.9375 3.12954,8.75 1.62663,5.61551 3.03509,8.75 3.93176,8.75 0.9188,0 2.96039,-4.90598 5.96284,-14.32881 2.90036,-9.10243 5.20398,-14.68292 6.31567,-15.29968 3.21833,-1.7855 1.80008,-2.8715 -3.75,-2.8715 -5.43272,0 -7.38128,1.27477 -3.5,2.28975 1.2477,0.32628 2,1.36401 2,2.75882 0,2.73105 -3.96681,16.31794 -4.58398,15.70077 -0.24323,-0.24322 -1.54931,-4.22383 -2.90241,-8.84579 -2.14061,-7.31195 -2.26881,-8.54777 -0.9869,-9.51379 2.55101,-1.92239 1.64941,-2.38976 -4.61004,-2.38976 -3.34584,0 -5.90961,0.3375 -5.69727,0.75 3.72771,7.24173 3.84702,8.04128 2.12453,14.23674 -0.91951,3.30729 -1.94471,6.01325 -2.27822,6.01325 -0.33351,0 -1.81652,-3.9375 -3.29556,-8.75 -2.32375,-7.56095 -2.49085,-8.90086 -1.22967,-9.86023 2.55604,-1.94436 1.6166,-2.38976 -5.04048,-2.38976 -6.64828,0 -7.58013,0.43894 -5.07335,2.38976 0.78466,0.61063 3.52055,7.74773 6.07975,15.86023 2.89556,9.17873 5.15057,14.75 5.97017,14.75 0.78738,0 2.42742,-3.61963 4.07788,-9 z m 46.39251,5.4074 c 1.34583,-1.29074 2.17083,-2.62293 1.83333,-2.96043 -0.3375,-0.3375 -1.55113,0.32386 -2.69697,1.4697 -4.0901,4.0901 -11.08332,1.47841 -11.08332,-4.13918 0,-1.54572 0.98041,-1.77749 7.51904,-1.77749 l 7.51905,0 -0.65738,-2.75 c -1.11423,-4.6611 -2.4088,-6.36378 -5.96963,-7.8516 -5.60728,-2.34287 -12.19067,0.24106 -14.43811,5.66687 -1.49075,3.59898 -0.68404,9.49152 1.65295,12.07387 3.79164,4.18972 12.08997,4.32611 16.32104,0.26826 z m -11.94696,-11.47314 c 0,-3.08664 1.84036,-5.93426 3.83518,-5.93426 2.56412,0 4.16481,1.99854 4.16481,5.2 0,2.6 -0.28571,2.8 -3.99999,2.8 -3.37577,0 -4,-0.32238 -4,-2.06574 z m 85.83352,12.3898 c 3.73922,-2.37094 5.40514,-7.45489 3.90789,-11.92592 -1.7328,-5.17442 -5.52697,-7.73327 -11.33642,-7.64544 -5.79907,0.0877 -9.45533,2.59553 -11.14643,7.64544 -2.69102,8.03585 4.37833,15.47177 13.24143,13.92806 1.65,-0.28739 4.05009,-1.18835 5.33353,-2.00214 z m -10.79835,-1.25832 c -0.56935,-1.06384 -1.03518,-4.46842 -1.03518,-7.56574 0,-6.83671 1.26156,-9.5 4.5,-9.5 3.23844,0 4.5,2.66329 4.5,9.5 0,6.83671 -1.26156,9.5 -4.5,9.5 -1.37865,0 -2.87742,-0.8367 -3.46482,-1.93426 z m 38.79834,1.25832 c 3.73923,-2.37094 5.40515,-7.45489 3.9079,-11.92592 -1.7328,-5.17442 -5.52698,-7.73327 -11.33643,-7.64544 -5.79907,0.0877 -9.45533,2.59553 -11.14643,7.64544 -2.69102,8.03585 4.37833,15.47177 13.24143,13.92806 1.65,-0.28739 4.05009,-1.18835 5.33353,-2.00214 z m -10.79835,-1.25832 c -0.56935,-1.06384 -1.03518,-4.46842 -1.03518,-7.56574 0,-6.83671 1.26156,-9.5 4.5,-9.5 3.23844,0 4.5,2.66329 4.5,9.5 0,6.83671 -1.26156,9.5 -4.5,9.5 -1.37865,0 -2.87742,-0.8367 -3.46482,-1.93426 z m 28.18653,1.58454 c 2.50209,2.5021 9.32956,2.11991 12.32021,-0.68966 8.59683,-8.0763 1.15065,-23.6642 -8.83052,-18.48592 l -2.7114,1.40669 6.2e-4,-6.69068 6.2e-4,-6.6907 -5.00062,0.34651 c -2.75034,0.19059 -5.00062,0.75309 -5.00062,1.25 0,0.49692 0.675,0.90349 1.5,0.90349 1.26953,0 1.5,2.40826 1.5,15.6743 l 0,15.67432 2.29963,-2.1604 c 2.12126,-1.99281 2.42549,-2.03454 3.92208,-0.53795 z m 1.81347,-1.58454 c -0.56935,-1.06384 -1.03518,-4.24342 -1.03518,-7.06574 0,-5.91482 1.31469,-9 3.83518,-9 3.0516,0 4.16482,2.20937 4.16482,8.26574 0,6.72491 -1.2366,9.73426 -4,9.73426 -1.0613,0 -2.39547,-0.87042 -2.96482,-1.93426 z m -92.03517,1.93426 c 0,-0.55 -0.6199,-1 -1.37756,-1 -2.95726,0 -3.69918,-2.73238 -3.40989,-12.55804 l 0.28745,-9.76286 10.44886,12.16044 c 5.74688,6.68825 11.03438,12.16046 11.75,12.16046 1.00619,0 1.30114,-3.17169 1.30114,-13.99153 0,-12.90851 0.15481,-14.08819 2,-15.24053 3.25799,-2.03465 2.33077,-2.76793 -3.5,-2.76793 -3.025,0 -5.5,0.26537 -5.5,0.58971 0,0.32434 0.92144,1.33684 2.04765,2.25 1.80243,1.46146 2.012,2.60037 1.75,9.5104 l -0.29765,7.85013 -8.77109,-10.10013 -8.77109,-10.10011 -4.97891,0 c -5.33727,0 -6.17084,0.77453 -2.97891,2.76793 1.81924,1.13613 2,2.33202 2,13.23206 0,10.90005 -0.18076,12.09594 -2,13.23207 -3.31431,2.06982 -2.30545,2.76793 4,2.76793 3.33333,0 6,-0.44444 6,-1 z m 140.03934,-24.1853 c 23.33383,-31.26195 35.71659,-73.29645 32.12889,-109.06468 -2.18456,-21.77944 -7.13147,-39.5047 -16.25687,-58.24999 -23.19599,-47.648969 -66.53788,-80.993531 -119.853,-92.207469 -10.82194,-2.2762123 -14.97805,-2.6414393 -30.05836,-2.6414393 -15.08031,0 -19.23642,0.365227 -30.05836,2.6414393 -53.31512,11.213938 -96.65701,44.5585 -119.853,92.207469 -9.1254,18.74529 -14.07231,36.47055 -16.25687,58.24999 -3.92881,39.16901 11.01263,84.452 38.84101,117.7153 l 5.82723,6.96531 0.28916,-9.33843 0.28915,-9.33842 -5.40549,-8.12689 c -11.03964,-16.5975 -18.47017,-34.38826 -22.8156,-54.62688 -1.92449,-8.96322 -2.25445,-13.50039 -2.25445,-30.99999 0,-17.49961 0.32996,-22.03678 2.25445,-31 6.39044,-29.76317 18.83145,-53.320953 39.39924,-74.60481 21.81528,-22.574768 47.55884,-36.764636 79.09577,-43.597665 8.64444,-1.87297 13.25876,-2.198691 31.14776,-2.198691 17.889,0 22.50332,0.325721 31.14776,2.198691 31.53693,6.833029 57.28049,21.022897 79.09577,43.597665 20.56779,21.283857 33.0088,44.84164 39.39924,74.60481 1.92449,8.96322 2.25445,13.50039 2.25445,31 0,17.4996 -0.32996,22.03677 -2.25445,30.99999 -2.92516,13.6238 -7.28174,26.28818 -12.9001,37.5 -4.32971,8.64023 -14.59001,24.97859 -16.38163,26.08588 -0.47358,0.29268 -0.84259,4.66809 -0.82004,9.72313 l 0.041,9.19098 4.11051,-4.5 c 2.26079,-2.475 6.69185,-7.95839 9.84681,-12.1853 z m -157.02903,0.63563 c 1.25146,-6.02824 0.25734,-8.87399 -2.70313,-7.73795 -1.2502,0.47974 -1.42311,1.64416 -0.90224,6.07592 0.603,5.13062 1.20414,7.2117 2.08318,7.2117 0.20355,0 0.88853,-2.49736 1.52219,-5.54967 z m 148.23835,-18.74549 c 9.44096,-14.45489 16.85458,-32.81796 20.8745,-51.70483 1.79858,-8.45031 2.23484,-13.72092 2.23484,-26.99999 0,-13.27907 -0.43626,-18.54969 -2.23484,-27 -6.31084,-29.65036 -18.79722,-53.305833 -39.37963,-74.604811 -21.82742,-22.587327 -47.67658,-36.829296 -79.09577,-43.578985 -14.47472,-3.109559 -39.8208,-3.109559 -54.29552,0 -31.41919,6.749689 -57.26835,20.991658 -79.09577,43.578985 -20.58241,21.298978 -33.06879,44.954451 -39.37963,74.604811 -3.18038,14.94246 -3.18038,39.05754 0,53.99999 3.91401,18.38925 10.42221,34.82591 19.92454,50.32003 l 3.56935,5.82003 1.43345,-2.82003 c 1.92515,-3.78735 6.09457,-8.18447 9.39617,-9.90931 2.2756,-1.18883 19.6272,-1.41072 110.31573,-1.41072 77.59093,0 108.2248,0.31309 109.79965,1.12219 5.56082,2.85693 10.66961,9.57891 10.69957,14.07815 0.0169,2.5355 -0.0749,2.63186 5.23336,-5.49551 z m -142.24866,-35.70483 -14.5,-11.87628 -8.5,-0.0643 c -4.67499,-0.0354 -18.28749,-0.35988 -30.24999,-0.72111 -21.70341,-0.6554 -21.75,-0.66163 -21.75,-2.9099 0,-1.63094 2.4852,-4.26473 9,-9.53806 4.95,-4.00672 9,-7.53823 9,-7.84778 0,-0.30955 -8.325,-8.8787 -18.5,-19.04255 -13.09219,-13.07784 -18.5,-19.1404 -18.5,-20.73986 l 0,-2.26014 18.87157,0 18.87156,0 -8.41841,-26.75 c -4.63013,-14.712494 -8.68158,-28.437493 -9.00324,-30.499992 -0.53007,-3.39897 -0.37342,-3.75 1.67352,-3.75 1.24208,0 9.51383,4.43757 18.38167,9.861259 8.86783,5.423689 28.41391,17.300813 43.43574,26.393623 l 27.31241,16.53238 43.90257,-25.89364 c 24.14641,-14.241483 44.81832,-25.893622 45.93758,-25.893622 1.3575,0 2.03501,0.65538 2.03501,1.96855 0,1.542929 -13.59957,51.356272 -15.50705,56.800152 -0.35405,1.01045 3.21466,1.13133 17.53126,0.59386 17.4372,-0.65462 17.97579,-0.61591 17.97579,1.29212 0,1.22443 -7.19245,9.11649 -19.05286,20.90613 l -19.05286,18.93918 8.58505,7.99999 c 13.59008,12.66394 14.47191,12.12217 -21.18179,13.01346 l -29.70244,0.74252 -14.74766,12.37201 c -9.83473,8.2505 -15.51382,12.3514 -17.04754,12.31015 -1.39856,-0.0376 -7.98247,-4.7162 -16.79989,-11.93814 z m 10,-33.99999 c 0,-0.55 -0.45,-1 -1,-1 -0.55,0 -1,0.45 -1,1 0,0.55 0.45,1 1,1 0.55,0 1,-0.45 1,-1 z m 18,-1 c 0,-0.55 -0.45,-1 -1,-1 -0.55,0 -1,0.45 -1,1 0,0.55 0.45,1 1,1 0.55,0 1,-0.45 1,-1 z m 19.69835,-23.25 c 2.15696,-3.4375 4.79473,-7.6 5.8617,-9.25 l 1.93995,-3 -3,1.92077 c -1.65,1.05643 -4.49177,2.85643 -6.31504,4 -2.67817,1.67978 -8.18496,9.78424 -8.18496,12.04599 0,0.29328 1.29974,0.53324 2.8883,0.53324 2.458,0 3.47257,-0.93114 6.81005,-6.25 z m -54.09765,-1.55128 c -1.33815,-2.6407 -3.48323,-5.31322 -4.76685,-5.93892 -1.28362,-0.6257 -4.33506,-2.36853 -6.78098,-3.87295 l -4.44713,-2.73532 2.54219,4.42424 c 1.3982,2.43332 3.59477,6.33673 4.88127,8.67423 2.19386,3.98615 2.60807,4.25 6.67179,4.25 l 4.3327,0 -2.43299,-4.80128 z"
         id="path3595"
         inkscape:connector-curvature="0" />
      <path
         style="fill:#bcbcbb"
         d="m -596.4285,367.25938 c -90.2464,-10.14641 -160.13848,-80.10662 -169.94221,-170.10787 -4.10815,-37.71405 2.12762,-76.7352 17.30518,-108.289393 29.45779,-61.242853 85.92285,-101.043259 153.84762,-108.442224 12.43882,-1.354947 34.14,-1.354947 46.57882,0 91.2719,9.9421398 161.28291,79.544097 171.15281,170.152807 4.10815,37.71406 -2.12763,76.7352 -17.30518,108.2894 -29.4578,61.24285 -85.92286,101.04325 -153.84763,108.44222 -11.16341,1.21602 -36.78828,1.19192 -47.78941,-0.0449 z m 39.78941,-7.95506 c 45.34667,-4.93955 86.28693,-24.55418 117.52791,-56.30805 30.96352,-31.47184 49.42017,-71.4133 53.83175,-116.4956 2.69041,-27.49358 -3.93661,-61.4152 -17.51203,-89.638554 -29.92009,-62.203952 -87.02772,-101.8509347 -156.49848,-108.649073 -35.89651,-3.512693 -80.25863,8.4835361 -114.13855,30.864895 -49.14031,32.462503 -79.3511,82.895602 -85.14907,142.145612 -4.68494,47.87574 16.5984,103.92813 53.83174,141.77272 39.00042,39.6407 97.37567,61.83412 148.10673,56.30805 z m -26.78941,-7.87713 c 0,-0.5142 0.43186,-2.07078 0.95969,-3.45907 0.83157,-2.1872 0.55086,-2.84413 -2.10272,-4.92087 l -3.06241,-2.39669 3.99351,-0.63859 c 3.43439,-0.54918 4.19951,-1.15504 5.46476,-4.32728 l 1.47125,-3.68868 1.18633,3.59461 c 1.25577,3.80504 2.60225,4.74242 6.92138,4.81843 l 2.66821,0.0469 -3.16274,2.51391 c -2.84292,2.2597 -3.07217,2.8297 -2.2671,5.63681 1.15166,4.0156 0.72252,4.33669 -2.92019,2.18489 -2.80093,-1.65455 -3.14825,-1.66066 -5.53405,-0.0974 -2.91138,1.90763 -3.61592,2.05045 -3.61592,0.73303 z m 44,-3 c 0,-0.5142 0.43186,-2.07078 0.95969,-3.45907 0.83157,-2.1872 0.55086,-2.84413 -2.10272,-4.92087 l -3.06241,-2.39669 3.99351,-0.63859 c 3.43439,-0.54918 4.19951,-1.15504 5.46476,-4.32728 l 1.47125,-3.68868 1.18633,3.59461 c 1.25577,3.80504 2.60224,4.74242 6.92137,4.81843 l 2.66821,0.0469 -3.16274,2.51391 c -2.84292,2.2597 -3.07217,2.8297 -2.2671,5.63681 1.15166,4.0156 0.72252,4.33669 -2.92018,2.18489 -2.80093,-1.65455 -3.14825,-1.66066 -5.53405,-0.0974 -2.91138,1.90763 -3.61592,2.05045 -3.61592,0.73303 z m -84.99999,-1 c 0,-0.5142 0.43186,-2.07078 0.95969,-3.45907 0.83157,-2.1872 0.55086,-2.84413 -2.10272,-4.92087 l -3.06241,-2.39669 3.99351,-0.63859 c 3.43439,-0.54918 4.19951,-1.15504 5.46476,-4.32728 l 1.47125,-3.68868 1.18633,3.59461 c 1.25577,3.80504 2.60225,4.74242 6.92137,4.81843 l 2.66821,0.0469 -3.16274,2.51391 c -2.84292,2.2597 -3.07216,2.8297 -2.2671,5.63681 1.15166,4.0156 0.72252,4.33669 -2.92018,2.18489 -2.80093,-1.65455 -3.14825,-1.66066 -5.53405,-0.0974 -2.91138,1.90763 -3.61592,2.05045 -3.61592,0.73303 z m 123.99998,-11 c 0,-0.5142 0.43186,-2.07078 0.95969,-3.45907 0.83157,-2.1872 0.55086,-2.84413 -2.10272,-4.92087 l -3.06241,-2.39669 3.99351,-0.63859 c 3.43439,-0.54918 4.19951,-1.15504 5.46476,-4.32728 l 1.47125,-3.68868 1.18633,3.59461 c 1.25577,3.80504 2.60225,4.74242 6.92138,4.81843 l 2.66821,0.0469 -3.16274,2.51391 c -2.84292,2.2597 -3.07217,2.8297 -2.2671,5.63681 1.15166,4.0156 0.72252,4.33669 -2.92019,2.18489 -2.80093,-1.65455 -3.14825,-1.66066 -5.53405,-0.0974 -2.91138,1.90763 -3.61592,2.05045 -3.61592,0.73303 z m -157.99998,-3 c 0,-0.5142 0.43186,-2.07078 0.95969,-3.45907 0.83157,-2.1872 0.55086,-2.84413 -2.10272,-4.92087 l -3.06241,-2.39669 3.99351,-0.63859 c 3.43439,-0.54918 4.19951,-1.15504 5.46476,-4.32728 l 1.47125,-3.68868 1.18633,3.59461 c 1.25577,3.80504 2.60225,4.74242 6.92138,4.81843 l 2.66821,0.0469 -3.16274,2.51391 c -2.84292,2.2597 -3.07217,2.8297 -2.2671,5.63681 1.15166,4.0156 0.72252,4.33669 -2.92019,2.18489 -2.80093,-1.65455 -3.14825,-1.66066 -5.53405,-0.0974 -2.91138,1.90763 -3.61592,2.05045 -3.61592,0.73303 z m -14,-19.94017 c -0.825,-0.47766 -3.19712,-1.17337 -5.27138,-1.54603 -4.60784,-0.82782 -10.51479,-5.82186 -12.49424,-10.56328 -0.80724,-1.93359 -4.31865,-6.5387 -7.80313,-10.23358 -24.0607,-25.51347 -39.26641,-57.8565 -43.93148,-93.44365 -12.13182,-92.54672 44.88668,-173.827065 135.44186,-193.0735219 11.57529,-2.4601947 14.39795,-2.6691347 36.05836,-2.6691347 21.66041,0 24.48307,0.20894 36.05836,2.6691347 72.94801,15.5042549 125.95332,72.0140799 135.44186,144.3967719 7.08158,54.02137 -9.20872,105.74788 -45.15123,143.36849 -4.04195,4.23066 -7.349,8.20331 -7.349,8.82811 0,2.09153 -7.09471,9.01791 -10.33115,10.08603 -1.7865,0.5896 -15.33601,1.24221 -30.68403,1.47789 -15.11665,0.23213 -28.60982,0.69135 -29.98482,1.02047 -2.16322,0.51781 -2.23058,0.46609 -0.5,-0.38393 2.22818,-1.09443 -142.54483,-0.7972 -145.99998,0.29975 -1.1,0.34923 -2.675,0.24415 -3.5,-0.23352 z m 20.8595,-26.37493 c 1.73743,-5.50491 3.1726,-8.63877 3.54473,-7.74033 0.34392,0.83032 1.64951,4.87769 2.90132,8.99416 1.54815,5.09097 2.82262,7.58975 3.98523,7.81365 0.94007,0.18104 1.70922,-0.19734 1.70922,-0.84086 0,-3.30585 8.44056,-27.3734 10.09746,-28.79209 2.99757,-2.56659 2.29951,-3.18452 -3.59746,-3.18452 -5.48318,0 -7.29631,1.2951 -3.5,2.5 2.52743,0.80218 2.51079,2.63558 -0.10066,11.09047 -2.37987,7.70511 -2.65778,7.54033 -5.72649,-3.39546 -1.73892,-6.19689 -1.83166,-7.38871 -0.61136,-7.85698 3.31546,-1.27226 1.00823,-2.33803 -5.06149,-2.33803 -5.96644,0 -8.38547,1.0625 -5.2011,2.28446 0.7144,0.27414 1.79765,2.12348 2.40722,4.10964 0.88334,2.87818 0.78392,4.62558 -0.48978,8.60854 -0.87895,2.74854 -1.8883,4.99735 -2.24301,4.99735 -0.35471,0 -1.80847,-3.7125 -3.23057,-8.25 -2.20473,-7.03463 -2.37623,-8.41355 -1.1642,-9.36023 2.49894,-1.95185 1.56833,-2.38976 -5.07856,-2.38976 -6.83493,0 -7.40958,0.33744 -5.03782,2.95821 0.8042,0.88863 3.52166,8.01155 6.0388,15.82873 3.06926,9.53186 5.048,14.21305 6.00784,14.21305 0.92808,0 2.45757,-3.25185 4.35068,-9.25 z m 40.94623,8.63885 c 3.59392,-0.71878 7.19426,-3.77896 7.19426,-6.1149 0,-1.28389 -0.61985,-1.05428 -2.80472,1.03896 -1.59546,1.52855 -3.94234,2.68709 -5.44329,2.68709 -2.82491,0 -5.75198,-3.16651 -5.75198,-6.22251 0,-1.54757 0.98414,-1.77749 7.6084,-1.77749 l 7.60841,0 -0.65354,-2.75 c -1.67683,-7.05591 -7.05907,-10.31684 -13.72952,-8.31834 -9.68585,2.90196 -10.65416,16.62792 -1.45545,20.63142 3.71254,1.61578 3.5614,1.59898 7.42743,0.82577 z m -6.80573,-14.27807 c 0,-1.03906 0.87181,-2.95156 1.93735,-4.25 1.57399,-1.918 2.27733,-2.15431 3.74999,-1.25993 0.99696,0.60547 1.95366,2.51797 2.12601,4.25 0.30518,3.06694 0.20728,3.14915 -3.74999,3.14915 -3.31727,0 -4.06336,-0.34689 -4.06336,-1.88922 z m 83.28211,13.52724 c 6.93886,-2.93692 9.41035,-9.5841 5.74379,-15.4482 -4.20378,-6.72329 -13.13096,-7.74826 -19.32013,-2.21824 -2.70381,2.41586 -3.20578,3.56538 -3.20578,7.3414 0,5.03167 2.10445,8.12356 7,10.28451 3.86457,1.70586 5.82832,1.71399 9.78212,0.0405 z m -7.23037,-1.58487 c -0.93273,-0.5901 -1.59177,-3.17027 -1.85146,-7.24861 -0.32772,-5.14672 -0.0449,-6.77483 1.51032,-8.69549 2.29734,-2.83709 5.75568,-2.22814 6.66776,1.17407 1.11711,4.16696 0.62513,11.26687 -0.93507,13.49437 -1.67367,2.3895 -3.09819,2.72654 -5.39155,1.27566 z m 35.23036,1.58487 c 6.93887,-2.93692 9.41036,-9.5841 5.7438,-15.4482 -4.20379,-6.72329 -13.13097,-7.74826 -19.32014,-2.21824 -2.70381,2.41586 -3.20578,3.56538 -3.20578,7.3414 0,5.03167 2.10445,8.12356 7,10.28451 3.86457,1.70586 5.82832,1.71399 9.78212,0.0405 z m -7.23037,-1.58487 c -0.93273,-0.5901 -1.59177,-3.17027 -1.85146,-7.24861 -0.32772,-5.14672 -0.0449,-6.77483 1.51032,-8.69549 2.29734,-2.83709 5.75568,-2.22814 6.66776,1.17407 1.11711,4.16696 0.62513,11.26687 -0.93507,13.49437 -1.67367,2.3895 -3.09819,2.72654 -5.39155,1.27566 z m 23.96516,0.91525 1.08728,-2.0316 2.58276,2.0316 c 7.10423,5.58818 17.59168,-2.24214 15.82512,-11.81562 -1.29181,-7.00075 -8.0493,-10.99646 -13.05271,-7.71811 l -2.45936,1.61144 0,-6.90021 0,-6.90022 -4.75,0.51022 c -5.59062,0.60051 -6.34814,1.05006 -3.99167,2.3688 1.53443,0.85871 1.74167,2.7536 1.74167,15.92499 0,14.64406 0.636,17.36748 3.01691,12.91871 z m 5.01827,-1.90266 c -1.30715,-2.44243 -1.34128,-10.13045 -0.0599,-13.50064 1.16893,-3.07453 4.4943,-3.42476 5.98957,-0.63084 0.56932,1.06384 1.03515,4.24342 1.03515,7.06574 0,6.02968 -1.32014,9 -4,9 -1.0613,0 -2.39547,-0.87042 -2.96482,-1.93426 z m -92.03517,2.09478 c 0,-0.46172 -1.125,-1.35207 -2.5,-1.97857 -2.43396,-1.10898 -2.49912,-1.41041 -2.46673,-11.41051 0.0319,-9.83532 0.10616,-10.18467 1.75,-8.22801 10.15399,12.08634 19.79533,22.45657 20.87818,22.45657 1.05442,0 1.33855,-2.97623 1.33855,-14.02144 0,-13.98577 0.006,-14.02432 2.5,-15.1605 4.15726,-1.89418 2.84589,-2.81805 -4,-2.81805 -6.84589,0 -8.15726,0.92387 -4,2.81805 2.36422,1.07721 2.5,1.57473 2.5,9.1605 0,4.41179 -0.1125,8.02058 -0.25,8.01953 -0.1375,-0.001 -4.075,-4.49235 -8.75,-9.98067 l -8.5,-9.97876 -5.25,-0.0193 c -5.44539,-0.02 -6.70254,1.13293 -3.25,2.98068 1.8288,0.97874 2,2.09382 2,13.0267 0,10.87334 -0.18116,12.06948 -2,13.20536 -3.31431,2.06982 -2.30545,2.76793 4,2.76793 3.3,0 6,-0.37777 6,-0.83948 z m 140.03934,-24.34582 c 23.33383,-31.26195 35.71659,-73.29645 32.12889,-109.06468 -2.18456,-21.77944 -7.13147,-39.5047 -16.25687,-58.24999 -23.19599,-47.648969 -66.53788,-80.993531 -119.853,-92.207469 -10.82194,-2.2762123 -14.97805,-2.6414393 -30.05836,-2.6414393 -15.08031,0 -19.23642,0.365227 -30.05836,2.6414393 -53.31512,11.213938 -96.65701,44.5585 -119.853,92.207469 -9.1254,18.74529 -14.07231,36.47055 -16.25687,58.24999 -3.92881,39.16901 11.01263,84.452 38.84101,117.7153 l 5.82723,6.96531 0.28916,-9.33843 0.28915,-9.33842 -5.40549,-8.12689 c -11.03964,-16.5975 -18.47017,-34.38826 -22.8156,-54.62688 -1.92449,-8.96322 -2.25445,-13.50039 -2.25445,-30.99999 0,-17.49961 0.32996,-22.03678 2.25445,-31 6.39044,-29.76317 18.83145,-53.320953 39.39924,-74.60481 21.81528,-22.574768 47.55884,-36.764636 79.09577,-43.597665 8.64444,-1.87297 13.25876,-2.198691 31.14776,-2.198691 17.889,0 22.50332,0.325721 31.14776,2.198691 31.53693,6.833029 57.28049,21.022897 79.09577,43.597665 20.56779,21.283857 33.0088,44.84164 39.39924,74.60481 1.92449,8.96322 2.25445,13.50039 2.25445,31 0,17.4996 -0.32996,22.03677 -2.25445,30.99999 -2.92516,13.6238 -7.28174,26.28818 -12.9001,37.5 -4.32971,8.64023 -14.59001,24.97859 -16.38163,26.08588 -0.47358,0.29268 -0.84259,4.66809 -0.82004,9.72313 l 0.041,9.19098 4.11051,-4.5 c 2.26079,-2.475 6.69185,-7.95839 9.84681,-12.1853 z m -157.68239,4.69748 c 0.31401,-0.8183 0.86125,-3.67631 1.21608,-6.35114 0.53485,-4.03195 0.35464,-4.97481 -1.05419,-5.51543 -3.4563,-1.3263 -4.24727,1.31424 -2.87699,9.60439 0.64529,3.90401 1.73627,4.81299 2.7151,2.26218 z m 148.89171,-22.80734 c 9.44096,-14.45489 16.85458,-32.81796 20.8745,-51.70483 1.79858,-8.45031 2.23484,-13.72092 2.23484,-26.99999 0,-13.27907 -0.43626,-18.54969 -2.23484,-27 -6.31084,-29.65036 -18.79722,-53.305833 -39.37963,-74.604811 -21.82742,-22.587327 -47.67658,-36.829296 -79.09577,-43.578985 -14.47472,-3.109559 -39.8208,-3.109559 -54.29552,0 -31.41919,6.749689 -57.26835,20.991658 -79.09577,43.578985 -20.58241,21.298978 -33.06879,44.954451 -39.37963,74.604811 -3.18038,14.94246 -3.18038,39.05754 0,53.99999 3.90541,18.34888 10.42335,34.82677 19.86844,50.22913 3.27481,5.34032 5.25473,6.56361 5.25473,3.24665 0,-2.22367 6.14847,-8.63987 9.70226,-10.12474 4.79019,-2.00147 214.80527,-2.00147 219.59546,0 4.41605,1.84515 9.46045,7.84307 10.28278,12.2265 0.37355,1.99116 0.95824,3.22577 1.29933,2.74356 0.34108,-0.4822 2.30706,-3.45952 4.36882,-6.61627 z m -142.24866,-35.70483 -14.5,-11.87628 -8.5,-0.0643 c -4.67499,-0.0354 -18.28749,-0.35988 -30.24999,-0.72111 -21.70341,-0.6554 -21.75,-0.66163 -21.75,-2.9099 0,-1.63094 2.4852,-4.26473 9,-9.53806 4.95,-4.00672 9,-7.53823 9,-7.84778 0,-0.30955 -8.325,-8.8787 -18.5,-19.04255 -13.09219,-13.07784 -18.5,-19.1404 -18.5,-20.73986 l 0,-2.26014 18.87157,0 18.87156,0 -8.41841,-26.75 c -4.63013,-14.712494 -8.68158,-28.437493 -9.00324,-30.499992 -0.53007,-3.39897 -0.37342,-3.75 1.67352,-3.75 1.24208,0 9.51383,4.43757 18.38167,9.861259 8.86783,5.423689 28.41391,17.300813 43.43574,26.393623 l 27.31241,16.53238 43.90257,-25.89364 c 24.14641,-14.241483 44.81832,-25.893622 45.93758,-25.893622 1.3575,0 2.03501,0.65538 2.03501,1.96855 0,1.542929 -13.59957,51.356272 -15.50705,56.800152 -0.35405,1.01045 3.21466,1.13133 17.53126,0.59386 17.4372,-0.65462 17.97579,-0.61591 17.97579,1.29212 0,1.22443 -7.19245,9.11649 -19.05286,20.90613 l -19.05286,18.93918 8.58505,7.99999 c 13.59008,12.66394 14.47191,12.12217 -21.18179,13.01346 l -29.70244,0.74252 -14.74766,12.37201 c -9.83473,8.2505 -15.51382,12.3514 -17.04754,12.31015 -1.39856,-0.0376 -7.98247,-4.7162 -16.79989,-11.93814 z m 10,-33.99999 c 0,-0.55 -0.45,-1 -1,-1 -0.55,0 -1,0.45 -1,1 0,0.55 0.45,1 1,1 0.55,0 1,-0.45 1,-1 z m 18,-1 c 0,-0.55 -0.45,-1 -1,-1 -0.55,0 -1,0.45 -1,1 0,0.55 0.45,1 1,1 0.55,0 1,-0.45 1,-1 z m 22.07017,-26.76559 5.95275,-9.26559 -6.82239,4.53659 c -5.15051,3.42485 -7.35885,5.64076 -9.01147,9.04234 -1.20398,2.47816 -2.18906,4.74723 -2.18906,5.04236 0,0.29513 1.37642,0.3956 3.05871,0.22325 2.64644,-0.27112 3.86105,-1.56222 9.01146,-9.57895 z m -56.41908,2.06375 c -1.36586,-2.6954 -3.53362,-5.41266 -4.81724,-6.03836 -1.28362,-0.6257 -4.30635,-2.35141 -6.71719,-3.83491 l -4.38334,-2.69728 4.58305,8.38619 c 4.49642,8.22768 4.66433,8.39606 8.88334,8.90776 2.36516,0.28686 4.44304,0.44411 4.61752,0.34944 0.17448,-0.0947 -0.80028,-2.37745 -2.16614,-5.07284 z"
         id="path3593"
         inkscape:connector-curvature="0" />
      <path
         style="fill:#878877"
         d="m -595.4285,367.25938 c -66.9842,-7.53104 -124.25411,-48.31009 -153.63703,-109.39728 -24.64282,-51.2325 -24.64282,-116.76749 0,-167.999983 33.13041,-68.878246 99.85215,-110.499987 177.13703,-110.499987 77.28488,0 144.00662,41.621741 177.13704,110.499987 24.64281,51.232493 24.64281,116.767483 0,167.999983 -29.65078,61.64407 -86.79037,102.02882 -154.84763,109.44222 -11.15061,1.21462 -34.79274,1.19142 -45.78941,-0.0449 z m 39.78941,-7.95506 c 45.11469,-4.91428 86.37954,-24.61253 117.08849,-55.89354 37.0049,-37.69421 57.80099,-93.24036 53.30363,-142.37343 -2.85214,-31.15932 -12.00462,-58.73584 -28.0902,-84.636121 -31.29462,-50.389224 -84.18659,-82.4475006 -145.57246,-88.232722 -50.44455,-4.754073 -108.45068,17.491976 -146.39677,56.144925 -30.6978,31.269637 -49.18779,71.758878 -53.30363,116.723918 -4.49736,49.13307 16.29873,104.67922 53.30363,142.37343 38.86041,39.5843 97.69217,61.55513 149.66731,55.89354 z m -27.78941,-7.87713 c 0,-0.5142 0.43186,-2.07078 0.95969,-3.45907 0.83157,-2.1872 0.55086,-2.84413 -2.10272,-4.92087 l -3.06241,-2.39669 3.99351,-0.63859 c 3.43439,-0.54918 4.19951,-1.15504 5.46476,-4.32728 l 1.47125,-3.68868 1.18633,3.59461 c 1.25577,3.80504 2.60225,4.74242 6.92138,4.81843 l 2.66821,0.0469 -3.16274,2.51391 c -2.84292,2.2597 -3.07217,2.8297 -2.2671,5.63681 1.15166,4.0156 0.72252,4.33669 -2.92019,2.18489 -2.80093,-1.65455 -3.14825,-1.66066 -5.53405,-0.0974 -2.91138,1.90763 -3.61592,2.05045 -3.61592,0.73303 z m 44,-3 c 0,-0.5142 0.43186,-2.07078 0.95969,-3.45907 0.83157,-2.1872 0.55086,-2.84413 -2.10272,-4.92087 l -3.06241,-2.39669 3.99351,-0.63859 c 3.43439,-0.54918 4.19951,-1.15504 5.46476,-4.32728 l 1.47125,-3.68868 1.18633,3.59461 c 1.25577,3.80504 2.60224,4.74242 6.92137,4.81843 l 2.66821,0.0469 -3.16274,2.51391 c -2.84292,2.2597 -3.07217,2.8297 -2.2671,5.63681 1.15166,4.0156 0.72252,4.33669 -2.92018,2.18489 -2.80093,-1.65455 -3.14825,-1.66066 -5.53405,-0.0974 -2.91138,1.90763 -3.61592,2.05045 -3.61592,0.73303 z m -84.99999,-1 c 0,-0.5142 0.43186,-2.07078 0.95969,-3.45907 0.83157,-2.1872 0.55086,-2.84413 -2.10272,-4.92087 l -3.06241,-2.39669 3.99351,-0.63859 c 3.43439,-0.54918 4.19951,-1.15504 5.46476,-4.32728 l 1.47125,-3.68868 1.18633,3.59461 c 1.25577,3.80504 2.60225,4.74242 6.92137,4.81843 l 2.66821,0.0469 -3.16274,2.51391 c -2.84292,2.2597 -3.07216,2.8297 -2.2671,5.63681 1.15166,4.0156 0.72252,4.33669 -2.92018,2.18489 -2.80093,-1.65455 -3.14825,-1.66066 -5.53405,-0.0974 -2.91138,1.90763 -3.61592,2.05045 -3.61592,0.73303 z m 123.99998,-11 c 0,-0.5142 0.43186,-2.07078 0.95969,-3.45907 0.83157,-2.1872 0.55086,-2.84413 -2.10272,-4.92087 l -3.06241,-2.39669 3.99351,-0.63859 c 3.43439,-0.54918 4.19951,-1.15504 5.46476,-4.32728 l 1.47125,-3.68868 1.18633,3.59461 c 1.25577,3.80504 2.60225,4.74242 6.92138,4.81843 l 2.66821,0.0469 -3.16274,2.51391 c -2.84292,2.2597 -3.07217,2.8297 -2.2671,5.63681 1.15166,4.0156 0.72252,4.33669 -2.92019,2.18489 -2.80093,-1.65455 -3.14825,-1.66066 -5.53405,-0.0974 -2.91138,1.90763 -3.61592,2.05045 -3.61592,0.73303 z m -157.99998,-3 c 0,-0.5142 0.43186,-2.07078 0.95969,-3.45907 0.83157,-2.1872 0.55086,-2.84413 -2.10272,-4.92087 l -3.06241,-2.39669 3.99351,-0.63859 c 3.43439,-0.54918 4.19951,-1.15504 5.46476,-4.32728 l 1.47125,-3.68868 1.18633,3.59461 c 1.25577,3.80504 2.60225,4.74242 6.92138,4.81843 l 2.66821,0.0469 -3.16274,2.51391 c -2.84292,2.2597 -3.07217,2.8297 -2.2671,5.63681 1.15166,4.0156 0.72252,4.33669 -2.92019,2.18489 -2.80093,-1.65455 -3.14825,-1.66066 -5.53405,-0.0974 -2.91138,1.90763 -3.61592,2.05045 -3.61592,0.73303 z m -14,-20.22098 c -1.375,-0.42373 -3.65173,-0.99905 -5.0594,-1.27849 -4.6915,-0.9313 -9.3739,-4.93613 -12.13114,-10.37567 -1.47979,-2.91938 -5.42592,-8.2321 -8.76916,-11.80604 -23.84698,-25.49249 -38.90274,-57.66644 -43.54053,-93.04553 -11.93872,-91.07366 46.20048,-172.916485 136.44186,-192.0698479 11.47822,-2.4362057 14.49358,-2.6654617 35.05836,-2.6654617 20.56478,0 23.58014,0.229256 35.05836,2.6654617 32.45096,6.8875839 61.05917,21.6691429 83.81538,43.3065299 35.73221,33.975426 54.12624,76.599288 54.12624,125.424948 0,44.65901 -16.13024,85.83699 -45.97074,117.35608 -3.71988,3.92915 -7.67535,8.9439 -8.78993,11.1439 -2.302,4.54379 -4.32152,6.54047 -9.02624,8.92418 -3.00104,1.52052 -11.91583,1.66544 -102.49999,1.66627 -54.56718,5e-4 -100.78807,0.34363 -102.71307,0.7625 -1.925,0.41887 -4.625,0.4149 -6,-0.009 z m 20.64409,-25.34412 c 1.52248,-4.675 3.05205,-8.5 3.39905,-8.5 0.347,0 1.70378,3.825 3.01506,8.5 3.44539,12.28354 4.65864,11.68375 9.52259,-4.70763 2.22114,-7.48518 4.89406,-14.37169 6.16921,-15.89435 1.2375,-1.47769 2.25,-2.95926 2.25,-3.29237 0,-0.3331 -2.475,-0.60564 -5.5,-0.60564 -5.83077,0 -6.75799,0.73328 -3.5,2.76793 1.1,0.68696 2,1.75919 2,2.38273 0,1.94894 -4.11825,15.06441 -4.58398,14.59868 -0.24323,-0.24322 -1.5179,-4.14212 -2.8326,-8.66422 -1.97614,-6.79719 -2.14716,-8.3153 -0.98689,-8.76053 3.28253,-1.25963 0.94766,-2.32459 -5.09653,-2.32459 -6.20634,0 -8.05921,0.96946 -5.16093,2.70031 2.68356,1.60262 3.44392,6.47812 1.8792,12.04968 -0.81093,2.8875 -1.7993,5.25 -2.19639,5.25 -0.39708,0 -1.8552,-3.7125 -3.24027,-8.25 -2.10495,-6.89583 -2.2937,-8.43223 -1.14996,-9.36023 2.41869,-1.96246 1.50113,-2.38976 -5.13165,-2.38976 -6.80059,0 -7.37906,0.3294 -5.13016,2.92126 1.07864,1.24313 5.351,13.34471 10.17774,28.82873 0.21431,0.6875 1.05086,1.25 1.85901,1.25 0.96013,0 2.42871,-2.94582 4.2375,-8.5 z m 43.22779,7.39482 c 3.08467,-1.07533 5.12811,-3.47264 5.12811,-6.01617 0,-0.68906 -1.26212,-0.0436 -2.80472,1.43426 -1.54259,1.4779 -3.79259,2.68709 -5,2.68709 -2.7419,0 -6.19527,-3.34451 -6.19527,-6 0,-1.82514 0.66667,-2 7.62499,-2 l 7.625,0 -0.64039,-3.20193 c -2.58306,-12.91531 -21.6096,-10.53636 -21.6096,2.70193 0,8.6441 7.25812,13.39759 15.87188,10.39482 z m -8.87188,-13.78404 c 0,-1.03906 0.87181,-2.95156 1.93735,-4.25 1.57399,-1.918 2.27733,-2.15431 3.74999,-1.25993 0.99696,0.60547 1.95366,2.51797 2.12601,4.25 0.30518,3.06694 0.20728,3.14915 -3.74999,3.14915 -3.31727,0 -4.06336,-0.34689 -4.06336,-1.88922 z m 85.10211,12.60189 c 4.34547,-2.92522 6.27389,-6.89476 5.4592,-11.23745 -0.64682,-3.44784 -4.81139,-7.78504 -8.64286,-9.0011 -3.26674,-1.03682 -8.56959,0.36145 -11.85502,3.12595 -10.84457,9.1251 3.18645,25.09108 15.03868,17.1126 z m -9.54542,-1.93518 c -3.27395,-4.67422 -1.15066,-16.77749 2.9433,-16.77749 2.48644,0 4.5,4.25085 4.5,9.5 0,5.24915 -2.01356,9.5 -4.5,9.5 -0.76263,0 -2.08711,-1.00013 -2.9433,-2.22251 z m 37.54541,1.93518 c 4.34548,-2.92522 6.2739,-6.89476 5.45921,-11.23745 -0.64682,-3.44784 -4.8114,-7.78504 -8.64287,-9.0011 -3.26674,-1.03682 -8.56959,0.36145 -11.85502,3.12595 -10.84456,9.1251 3.18645,25.09108 15.03868,17.1126 z m -9.54542,-1.93518 c -3.27395,-4.67422 -1.15066,-16.77749 2.9433,-16.77749 2.48644,0 4.5,4.25085 4.5,9.5 0,5.24915 -2.01356,9.5 -4.5,9.5 -0.76263,0 -2.08711,-1.00013 -2.9433,-2.22251 z m 24.29977,2.5145 c 0.8948,-1.59892 1.18011,-1.58723 4.46723,0.183 3.0732,1.65503 4.02132,1.73822 7.59788,0.66665 5.25529,-1.57452 7.57842,-5.07825 7.57842,-11.42969 0,-4.24364 -0.42354,-5.25444 -3.26578,-7.79398 -3.65027,-3.26152 -6.70562,-3.67695 -10.01171,-1.36127 l -2.22251,1.55671 0,-7.11797 0,-7.11798 -4.75,0.68941 c -5.63239,0.81747 -6.31729,1.25635 -3.99167,2.55783 1.53443,0.85871 1.74167,2.7536 1.74167,15.92499 0,14.35786 0.62102,17.23683 2.85647,13.2423 z m 5.11878,-2.85709 c -2.31494,-6.08876 -0.51969,-15.4349 2.96482,-15.4349 2.65493,0 4.05993,2.89626 4.05993,8.36916 0,6.11525 -1.46014,9.63084 -4,9.63084 -1.27987,0 -2.41573,-0.96325 -3.02475,-2.5651 z m -91.97524,2.72562 c 0,-0.46172 -1.125,-1.35207 -2.5,-1.97857 -2.43381,-1.10891 -2.49916,-1.41104 -2.4682,-11.41051 0.0256,-8.27128 0.26903,-9.96557 1.25,-8.70077 5.51521,7.11096 20.23575,22.92933 21.338,22.92933 1.10798,0 1.3802,-2.76552 1.3802,-14.02144 0,-13.98577 0.006,-14.02432 2.5,-15.1605 4.15726,-1.89418 2.84589,-2.81805 -4,-2.81805 -6.84589,0 -8.15726,0.92387 -4,2.81805 2.37633,1.08272 2.4989,1.54826 2.47776,9.4105 -0.0215,8.00649 -0.0776,8.20216 -1.75,6.10858 -0.95027,-1.18958 -4.87297,-5.80208 -8.71712,-10.24999 l -6.98936,-8.08714 -5.26064,0 c -5.45753,0 -6.71111,1.15337 -3.26064,3 1.82923,0.97897 2,2.09382 2,13.05661 0,11.81492 -0.0357,12.00254 -2.5,13.12533 -4.15726,1.89418 -2.84589,2.81805 4,2.81805 3.575,0 6.5,-0.37777 6.5,-0.83948 z m 139.55373,-22.66051 c 17.15894,-22.75757 28.1097,-49.89295 31.94649,-79.16162 1.89418,-14.4496 1.89418,-24.22714 0,-38.67675 -9.46823,-72.227752 -61.8303,-128.069005 -134.44186,-143.37482 -10.98229,-2.3149613 -14.8801,-2.6471813 -31.05836,-2.6471813 -16.17826,0 -20.07607,0.33222 -31.05836,2.6471813 -72.61156,15.305815 -124.97363,71.147068 -134.44186,143.37482 -1.89418,14.44961 -1.89418,24.22715 0,38.67675 4.24887,32.41224 17.24026,62.05661 38.18232,87.12622 l 5.81791,6.9646 0.28639,-10.34188 0.28639,-10.34187 -5.40273,-8.12273 c -11.041,-16.59955 -18.47562,-34.40421 -22.80861,-54.62272 -3.26255,-15.22364 -3.26255,-44.77634 0,-59.99999 6.43263,-30.01586 18.83508,-53.362013 39.90547,-75.117411 22.40295,-23.131267 47.82528,-37.212285 79.58532,-44.081034 14.7317,-3.186024 45.56382,-3.186024 60.29552,0 31.76004,6.868749 57.18237,20.949767 79.58532,44.081034 21.07039,21.755398 33.47284,45.101551 39.90547,75.117411 1.89774,8.85519 2.25023,13.55464 2.25023,30 0,16.44535 -0.35249,21.1448 -2.25023,29.99999 -2.91741,13.61319 -7.27337,26.27988 -12.89588,37.5 -4.32971,8.64023 -14.59001,24.97859 -16.38163,26.08588 -0.47358,0.29268 -0.84259,5.1181 -0.82004,10.72313 l 0.041,10.19098 4.09689,-4.5 c 2.2533,-2.475 6.47196,-7.65 9.37482,-11.49999 z m -157.21268,3.74999 c 0.2525,-0.4125 0.78022,-3.33198 1.17271,-6.48775 0.61587,-4.95172 0.47275,-5.83018 -1.04467,-6.41248 -3.09382,-1.1872 -4.27174,1.85996 -3.13765,8.11677 0.92907,5.12572 1.87744,6.63306 3.00961,4.78346 z m 148.90761,-22.54516 c 9.43524,-14.44613 16.84519,-32.79516 20.88015,-51.70483 1.83531,-8.60111 2.2405,-13.66481 2.2405,-27.99999 0,-14.33518 -0.40519,-19.39889 -2.2405,-28 -6.52754,-30.59105 -19.05914,-53.918893 -40.60708,-75.590981 -21.78931,-21.914827 -45.79595,-34.905346 -76.87397,-41.598185 -14.56928,-3.137579 -41.72624,-3.137579 -56.29552,0 -31.07802,6.692839 -55.08466,19.683358 -76.87397,41.598185 -21.54794,21.672088 -34.07954,44.999931 -40.60708,75.590981 -3.21055,15.04611 -3.21055,40.95389 0,55.99999 3.92922,18.41414 10.43357,34.83529 19.93401,50.32622 l 3.57317,5.82621 1.92982,-3.82621 c 2.60918,-5.1732 4.5168,-7.19452 8.90198,-9.43263 3.57199,-1.82307 7.67964,-1.89359 110.29965,-1.89359 114.82053,0 109.01704,-0.24612 114.84658,4.87059 2.4861,2.1821 5.63993,8.50189 5.6589,11.33957 0.0169,2.52502 -0.0739,2.6205 5.23336,-5.50533 z m -141.24866,-36.70483 -14.5,-11.87628 -13.99999,-0.2002 c -7.7,-0.11011 -21.42,-0.47545 -30.48889,-0.81186 -20.34128,-0.75457 -20.56456,-1.02475 -8.80997,-10.66055 4.56437,-3.74163 8.96366,-7.40466 9.7762,-8.14008 1.27246,-1.15169 -1.20915,-4.02628 -17.89401,-20.7276 -13.83718,-13.85085 -19.19633,-19.84657 -18.75872,-20.98695 0.53068,-1.38294 3.10548,-1.59647 19.25099,-1.59647 14.49843,0 18.53243,-0.27765 18.16138,-1.25 -3.10453,-8.13567 -17.71143,-57.374182 -17.3217,-58.389822 0.28707,-0.74809 1.04307,-1.36017 1.68,-1.36017 0.63693,0 8.41355,4.43644 17.28139,9.858749 33.98547,20.780693 69.40669,42.120883 70.80338,42.656843 0.84044,0.32251 20.19552,-10.49258 45.72728,-25.55115 24.45504,-14.423523 44.90172,-25.867952 45.68134,-25.568782 0.77622,0.29786 1.41131,0.99154 1.41131,1.5415 0,0.77153 -12.90321,47.315492 -15.62661,56.367732 -0.51455,1.71029 0.37747,1.76802 17.01606,1.10114 14.97658,-0.60025 17.64205,-0.48752 18.12327,0.7665 0.3744,0.97568 -5.84021,7.8185 -18.47427,20.34174 -10.47115,10.37932 -19.04313,19.34718 -19.04886,19.9286 -0.006,0.58142 3.90109,4.6819 8.6818,9.11218 6.06891,5.62406 8.50939,8.53145 8.08646,9.63357 -0.52393,1.36535 -4.62691,1.67903 -30.38424,2.32292 l -29.77851,0.74442 -14.74766,12.37201 c -8.1112,6.80461 -15.3326,12.34417 -16.04754,12.31015 -0.71494,-0.034 -7.82489,-5.40619 -15.79989,-11.93814 z m 9,-33.99999 c 0,-0.55 -0.45,-1 -1,-1 -0.55,0 -1,0.45 -1,1 0,0.55 0.45,1 1,1 0.55,0 1,-0.45 1,-1 z m 18,-1 c 0,-0.55 -0.45,-1 -1,-1 -0.55,0 -1,0.45 -1,1 0,0.55 0.45,1 1,1 0.55,0 1,-0.45 1,-1 z m 20.18066,-23.75 c 8.3188,-12.55048 8.42586,-12.73553 6.81934,-11.78718 -8.88557,5.24527 -13.21921,9.03626 -15.51995,13.57655 l -2.51374,4.96063 3.37013,0 c 3.0521,0 3.79233,-0.63697 7.84422,-6.75 z m -53.63515,-0.16018 c -2.33,-4.59805 -5.55672,-7.20777 -15.97281,-12.9186 -0.51002,-0.27963 1.14052,3.27996 3.66786,7.91018 4.06548,7.44819 4.97925,8.48988 7.9273,9.03696 7.18313,1.333 7.12272,1.38859 4.37765,-4.02854 z"
         id="path3591"
         inkscape:connector-curvature="0" />
      <path
         style="fill:#7c7c7c"
         d="m -595.4285,367.25938 c -66.9842,-7.53104 -124.25411,-48.31009 -153.63703,-109.39728 -24.64282,-51.2325 -24.64282,-116.76749 0,-167.999983 33.13041,-68.878246 99.85215,-110.499987 177.13703,-110.499987 77.28488,0 144.00662,41.621741 177.13704,110.499987 24.64281,51.232493 24.64281,116.767483 0,167.999983 -29.65078,61.64407 -86.79037,102.02882 -154.84763,109.44222 -11.15061,1.21462 -34.79274,1.19142 -45.78941,-0.0449 z m 39.78941,-7.95506 c 45.11469,-4.91428 86.37954,-24.61253 117.08849,-55.89354 37.0049,-37.69421 57.80099,-93.24036 53.30363,-142.37343 -2.85214,-31.15932 -12.00462,-58.73584 -28.0902,-84.636121 -31.29462,-50.389224 -84.18659,-82.4475006 -145.57246,-88.232722 -50.44455,-4.754073 -108.45068,17.491976 -146.39677,56.144925 -30.6978,31.269637 -49.18779,71.758878 -53.30363,116.723918 -4.49736,49.13307 16.29873,104.67922 53.30363,142.37343 38.86041,39.5843 97.69217,61.55513 149.66731,55.89354 z m -27.78941,-7.87713 c 0,-0.5142 0.43186,-2.07078 0.95969,-3.45907 0.83157,-2.1872 0.55086,-2.84413 -2.10272,-4.92087 l -3.06241,-2.39669 3.99351,-0.63859 c 3.43439,-0.54918 4.19951,-1.15504 5.46476,-4.32728 l 1.47125,-3.68868 1.18633,3.59461 c 1.25577,3.80504 2.60225,4.74242 6.92138,4.81843 l 2.66821,0.0469 -3.16274,2.51391 c -2.84292,2.2597 -3.07217,2.8297 -2.2671,5.63681 1.15166,4.0156 0.72252,4.33669 -2.92019,2.18489 -2.80093,-1.65455 -3.14825,-1.66066 -5.53405,-0.0974 -2.91138,1.90763 -3.61592,2.05045 -3.61592,0.73303 z m 44,-3 c 0,-0.5142 0.43186,-2.07078 0.95969,-3.45907 0.83157,-2.1872 0.55086,-2.84413 -2.10272,-4.92087 l -3.06241,-2.39669 3.99351,-0.63859 c 3.43439,-0.54918 4.19951,-1.15504 5.46476,-4.32728 l 1.47125,-3.68868 1.18633,3.59461 c 1.25577,3.80504 2.60224,4.74242 6.92137,4.81843 l 2.66821,0.0469 -3.16274,2.51391 c -2.84292,2.2597 -3.07217,2.8297 -2.2671,5.63681 1.15166,4.0156 0.72252,4.33669 -2.92018,2.18489 -2.80093,-1.65455 -3.14825,-1.66066 -5.53405,-0.0974 -2.91138,1.90763 -3.61592,2.05045 -3.61592,0.73303 z m -84.99999,-1 c 0,-0.5142 0.43186,-2.07078 0.95969,-3.45907 0.83157,-2.1872 0.55086,-2.84413 -2.10272,-4.92087 l -3.06241,-2.39669 3.99351,-0.63859 c 3.43439,-0.54918 4.19951,-1.15504 5.46476,-4.32728 l 1.47125,-3.68868 1.18633,3.59461 c 1.25577,3.80504 2.60225,4.74242 6.92137,4.81843 l 2.66821,0.0469 -3.16274,2.51391 c -2.84292,2.2597 -3.07216,2.8297 -2.2671,5.63681 1.15166,4.0156 0.72252,4.33669 -2.92018,2.18489 -2.80093,-1.65455 -3.14825,-1.66066 -5.53405,-0.0974 -2.91138,1.90763 -3.61592,2.05045 -3.61592,0.73303 z m 123.99998,-11 c 0,-0.5142 0.43186,-2.07078 0.95969,-3.45907 0.83157,-2.1872 0.55086,-2.84413 -2.10272,-4.92087 l -3.06241,-2.39669 3.99351,-0.63859 c 3.43439,-0.54918 4.19951,-1.15504 5.46476,-4.32728 l 1.47125,-3.68868 1.18633,3.59461 c 1.25577,3.80504 2.60225,4.74242 6.92138,4.81843 l 2.66821,0.0469 -3.16274,2.51391 c -2.84292,2.2597 -3.07217,2.8297 -2.2671,5.63681 1.15166,4.0156 0.72252,4.33669 -2.92019,2.18489 -2.80093,-1.65455 -3.14825,-1.66066 -5.53405,-0.0974 -2.91138,1.90763 -3.61592,2.05045 -3.61592,0.73303 z m -157.99998,-3 c 0,-0.5142 0.43186,-2.07078 0.95969,-3.45907 0.83157,-2.1872 0.55086,-2.84413 -2.10272,-4.92087 l -3.06241,-2.39669 3.99351,-0.63859 c 3.43439,-0.54918 4.19951,-1.15504 5.46476,-4.32728 l 1.47125,-3.68868 1.18633,3.59461 c 1.25577,3.80504 2.60225,4.74242 6.92138,4.81843 l 2.66821,0.0469 -3.16274,2.51391 c -2.84292,2.2597 -3.07217,2.8297 -2.2671,5.63681 1.15166,4.0156 0.72252,4.33669 -2.92019,2.18489 -2.80093,-1.65455 -3.14825,-1.66066 -5.53405,-0.0974 -2.91138,1.90763 -3.61592,2.05045 -3.61592,0.73303 z m -18.77067,-21.68147 c -6.1534,-1.56323 -9.33349,-4.17391 -12.22933,-10.03959 -1.375,-2.78514 -5.32113,-8.07761 -8.76916,-11.76104 -24.03675,-25.67768 -39.07801,-57.74909 -43.73107,-93.24461 -11.93872,-91.07366 46.20048,-172.916485 136.44186,-192.0698479 11.47822,-2.4362057 14.49358,-2.6654617 35.05836,-2.6654617 20.56478,0 23.58014,0.229256 35.05836,2.6654617 32.45096,6.8875839 61.05917,21.6691429 83.81538,43.3065299 35.73221,33.975426 54.12624,76.599288 54.12624,125.424948 0,44.65901 -16.13024,85.83699 -45.97074,117.35608 -3.71988,3.92915 -7.71068,9.01386 -8.86844,11.29937 -2.38814,4.7144 -5.81277,7.74453 -10.50178,9.29205 -4.66379,1.53918 -208.45609,1.95367 -214.42968,0.43611 z m 25.78729,-24.38363 c 3.02454,-9.5556 3.04605,-9.54649 6.49428,2.75 2.82938,10.08964 4.35274,8.83115 9.52624,-7.86988 2.77712,-8.96508 5.02904,-14.529 6.16839,-15.24054 3.51858,-2.19739 2.05027,-3.63957 -3.70553,-3.63957 -5.85767,0 -6.80711,0.88817 -3.38113,3.16293 l 2.11887,1.40688 -2.07719,7.34007 c -1.14245,4.03704 -2.25565,7.51854 -2.47377,7.73667 -0.21813,0.21812 -1.44825,-3.29683 -2.73361,-7.81101 -1.69783,-5.96279 -2.01101,-8.31626 -1.14509,-8.6049 0.65556,-0.21852 1.19192,-1.03481 1.19192,-1.81397 0,-1.07693 -1.55882,-1.41667 -6.5,-1.41667 -3.575,0 -6.5,0.24322 -6.5,0.54049 0,0.29727 0.96315,1.84322 2.14033,3.43544 2.29513,3.10433 2.25483,7.50664 -0.1238,13.52406 -1.17821,2.98064 -1.20216,2.94861 -3.70976,-4.96135 -1.95497,-6.16675 -2.274,-8.36146 -1.41533,-9.73642 0.60971,-0.9763 1.10856,-2.00619 1.10856,-2.28865 0,-0.28246 -3.15,-0.51357 -7,-0.51357 -7.20674,0 -8.41733,0.74627 -5.07431,3.12803 1.23779,0.88187 3.42044,6.1945 6.11003,14.87196 4.82803,15.57677 4.65983,15.20623 6.72061,14.80537 1.00116,-0.19475 2.54451,-3.38461 4.26029,-8.80537 z m 44.00339,7.48965 c 3.40002,-1.75822 5.54168,-5.02447 3.94254,-6.01279 -0.57356,-0.35448 -1.95744,0.51821 -3.07528,1.93931 -3.41914,4.34674 -9.09963,2.89618 -10.44094,-2.66617 l -0.66315,-2.75 7.7334,0 7.73341,0 -0.62252,-3.25 c -0.34414,-1.79669 -2.0292,-4.53066 -3.76826,-6.11391 -2.7601,-2.51281 -3.7065,-2.80069 -7.72003,-2.34831 -8.36066,0.94237 -12.61033,9.19453 -8.91342,17.30837 2.204,4.83725 10.17121,6.80128 15.79425,3.8935 z m -9.54802,-14.23406 c 1.39905,-5.57428 4.7763,-6.99949 6.6809,-2.81936 1.69675,3.72396 0.46335,5.56377 -3.72991,5.56377 -3.46954,0 -3.60758,-0.12837 -2.95099,-2.74441 z m 84.21801,14.08722 c 6.9419,-3.29415 8.15644,-12.24155 2.40912,-17.74784 -5.57316,-5.33942 -15.57367,-4.14024 -19.39307,2.32548 -6.09406,10.31643 5.5198,20.86246 16.98395,15.42236 z m -8.70473,-1.86054 c -1.88161,-2.2672 -2.3555,-11.44198 -0.74802,-14.48227 2.89968,-5.48432 7.73326,-1.42158 7.73326,6.5 0,7.17873 -3.92741,11.66672 -6.98524,7.98227 z m 36.70472,1.86054 c 6.94191,-3.29415 8.15645,-12.24155 2.40912,-17.74784 -5.57316,-5.33942 -15.57367,-4.14024 -19.39307,2.32548 -6.09406,10.31643 5.5198,20.86246 16.98395,15.42236 z m -8.70473,-1.86054 c -1.88161,-2.2672 -2.3555,-11.44198 -0.74802,-14.48227 2.89968,-5.48432 7.73326,-1.42158 7.73326,6.5 0,7.17873 -3.92741,11.66672 -6.98524,7.98227 z m 23.99286,2.04407 c 1.07743,-1.29822 1.56231,-1.29822 4.07279,0 3.62548,1.87481 6.29503,1.86324 9.9818,-0.0433 7.47918,-3.86763 7.99091,-16.351 0.82224,-20.05807 -3.1966,-1.65303 -7.46191,-1.87 -8.35497,-0.425 -1.56873,2.53826 -2.5,0.44716 -2.5,-5.61353 l 0,-6.61355 -4.75,0.70709 c -5.59633,0.83307 -6.34385,1.32835 -3.99167,2.64469 1.53443,0.85871 1.74167,2.7536 1.74167,15.92499 0,8.22267 0.3949,14.95031 0.87756,14.95031 0.48265,0 1.42792,-0.66315 2.10058,-1.47366 z m 5.57856,-2.74885 c -3.22181,-4.59979 -1.0789,-15.77749 3.02475,-15.77749 3.31984,0 4.70301,11.72117 1.86185,15.77749 -0.85619,1.22238 -1.95567,2.22251 -2.4433,2.22251 -0.48763,0 -1.58711,-1.00013 -2.4433,-2.22251 z m -92.55669,2.19113 c 0,-0.56727 -0.7875,-1.32194 -1.75,-1.67706 -2.87025,-1.059 -3.21867,-2.3612 -3.23469,-12.08964 l -0.0153,-9.29808 10.53945,12.04808 c 5.7967,6.62644 11.1967,12.04808 12,12.04808 1.20648,0 1.46321,-2.30493 1.47586,-13.25 0.0158,-13.6748 0.27268,-14.94869 3.23469,-16.04155 3.80962,-1.40558 1.52469,-2.70844 -4.75,-2.70844 -6.27469,0 -8.55962,1.30286 -4.75,2.70844 2.79523,1.03132 3.21846,2.35342 3.23469,10.1047 l 0.0153,7.31315 -8.69068,-10.06315 -8.69067,-10.06314 -5.80933,0 c -6.10256,0 -7.60871,1.36537 -3.30932,3 2.47576,0.94128 2.5,1.06733 2.5,12.99999 0,11.93267 -0.0242,12.05872 -2.5,13 -4.47232,1.70037 -2.73949,3 4,3 3.79853,0 6.5,-0.42865 6.5,-1.03138 z m 139.55373,-22.46861 c 17.15894,-22.75757 28.1097,-49.89295 31.94649,-79.16162 1.89418,-14.4496 1.89418,-24.22714 0,-38.67675 -9.46823,-72.227752 -61.8303,-128.069005 -134.44186,-143.37482 -10.98229,-2.3149613 -14.8801,-2.6471813 -31.05836,-2.6471813 -16.17826,0 -20.07607,0.33222 -31.05836,2.6471813 -72.61156,15.305815 -124.97363,71.147068 -134.44186,143.37482 -1.89418,14.44961 -1.89418,24.22715 0,38.67675 4.24887,32.41224 17.24026,62.05661 38.18232,87.12622 l 5.81791,6.9646 0.28639,-10.34188 0.28639,-10.34187 -5.40273,-8.12273 c -11.041,-16.59955 -18.47562,-34.40421 -22.80861,-54.62272 -3.26255,-15.22364 -3.26255,-44.77634 0,-59.99999 6.43263,-30.01586 18.83508,-53.362013 39.90547,-75.117411 22.40295,-23.131267 47.82528,-37.212285 79.58532,-44.081034 14.7317,-3.186024 45.56382,-3.186024 60.29552,0 31.76004,6.868749 57.18237,20.949767 79.58532,44.081034 21.07039,21.755398 33.47284,45.101551 39.90547,75.117411 1.89774,8.85519 2.25023,13.55464 2.25023,30 0,16.44535 -0.35249,21.1448 -2.25023,29.99999 -2.91741,13.61319 -7.27337,26.27988 -12.89588,37.5 -4.32971,8.64023 -14.59001,24.97859 -16.38163,26.08588 -0.47358,0.29268 -0.84259,5.1181 -0.82004,10.72313 l 0.041,10.19098 4.09689,-4.5 c 2.2533,-2.475 6.47196,-7.65 9.37482,-11.49999 z m -156.42204,0.91749 c 1.76504,-8.15201 -0.12274,-12.85501 -3.71718,-9.26058 -1.18689,1.1869 -1.23411,2.4078 -0.27738,7.17172 1.22929,6.12107 2.92907,7.00993 3.99456,2.08886 z m 148.11697,-19.71266 c 9.43524,-14.44613 16.84519,-32.79516 20.88015,-51.70483 1.83531,-8.60111 2.2405,-13.66481 2.2405,-27.99999 0,-14.33518 -0.40519,-19.39889 -2.2405,-28 -6.52754,-30.59105 -19.05914,-53.918893 -40.60708,-75.590981 -21.78931,-21.914827 -45.79595,-34.905346 -76.87397,-41.598185 -14.56928,-3.137579 -41.72624,-3.137579 -56.29552,0 -31.07802,6.692839 -55.08466,19.683358 -76.87397,41.598185 -21.54794,21.672088 -34.07954,44.999931 -40.60708,75.590981 -3.21055,15.04611 -3.21055,40.95389 0,55.99999 2.81288,13.18246 7.21667,26.17871 12.36804,36.5 3.93819,7.89055 10.71899,19.5 11.3895,19.5 0.18944,0 1.04264,-1.67103 1.896,-3.7134 2.08546,-4.99122 4.20993,-7.21761 8.97528,-9.40587 3.8016,-1.7457 9.25768,-1.83681 109.99999,-1.83681 101.05025,0 106.19044,0.0865 110.07859,1.85241 4.9858,2.26444 8.17327,6.14722 9.68431,11.79686 0.62809,2.34834 1.38838,3.92805 1.68953,3.51045 0.30116,-0.4176 2.23447,-3.34206 4.29623,-6.49881 z m -141.24866,-36.70483 -14.5,-11.87628 -13.99999,-0.2002 c -7.7,-0.11011 -21.42,-0.47545 -30.48889,-0.81186 -20.34128,-0.75457 -20.56456,-1.02475 -8.80997,-10.66055 4.56437,-3.74163 8.96366,-7.40466 9.7762,-8.14008 1.27246,-1.15169 -1.20915,-4.02628 -17.89401,-20.7276 -13.83718,-13.85085 -19.19633,-19.84657 -18.75872,-20.98695 0.53068,-1.38294 3.10548,-1.59647 19.25099,-1.59647 14.49843,0 18.53243,-0.27765 18.16138,-1.25 -3.10453,-8.13567 -17.71143,-57.374182 -17.3217,-58.389822 0.28707,-0.74809 1.04307,-1.36017 1.68,-1.36017 0.63693,0 8.41355,4.43644 17.28139,9.858749 33.98547,20.780693 69.40669,42.120883 70.80338,42.656843 0.84044,0.32251 20.19552,-10.49258 45.72728,-25.55115 24.45504,-14.423523 44.90172,-25.867952 45.68134,-25.568782 0.77622,0.29786 1.41131,0.99154 1.41131,1.5415 0,0.77153 -12.90321,47.315492 -15.62661,56.367732 -0.51455,1.71029 0.37747,1.76802 17.01606,1.10114 14.97658,-0.60025 17.64205,-0.48752 18.12327,0.7665 0.3744,0.97568 -5.84021,7.8185 -18.47427,20.34174 -10.47115,10.37932 -19.04313,19.34718 -19.04886,19.9286 -0.006,0.58142 3.90109,4.6819 8.6818,9.11218 6.06891,5.62406 8.50939,8.53145 8.08646,9.63357 -0.52393,1.36535 -4.62691,1.67903 -30.38424,2.32292 l -29.77851,0.74442 -14.74766,12.37201 c -8.1112,6.80461 -15.3326,12.34417 -16.04754,12.31015 -0.71494,-0.034 -7.82489,-5.40619 -15.79989,-11.93814 z m 9,-33.99999 c 0,-0.55 -0.45,-1 -1,-1 -0.55,0 -1,0.45 -1,1 0,0.55 0.45,1 1,1 0.55,0 1,-0.45 1,-1 z m 18,-1 c 0,-0.55 -0.45,-1 -1,-1 -0.55,0 -1,0.45 -1,1 0,0.55 0.45,1 1,1 0.55,0 1,-0.45 1,-1 z m 21.33766,-25.25 c 7.36345,-11.47774 7.21327,-11.20174 5.56685,-10.23036 -8.77696,5.17837 -13.13185,8.99549 -15.42446,13.51973 l -2.51374,4.96063 3.53931,0 c 3.33873,0 3.83929,-0.46758 8.83204,-8.25 z m -54.80469,1.31507 c -2.02229,-3.9908 -3.78676,-5.70513 -9.22279,-8.96072 -3.69714,-2.21419 -6.86392,-3.88394 -7.0373,-3.71057 -0.17337,0.17338 1.72986,3.95183 4.2294,8.39656 4.68693,8.3344 5.02081,8.58104 12.26457,9.05983 l 2.26684,0.14983 -2.50072,-4.93493 z"
         id="path3589"
         inkscape:connector-curvature="0" />
      <path
         style="fill:#3e3e3d"
         d="m -596.4285,366.25938 c -43.94256,-4.94046 -85.62055,-25.02761 -115.8779,-55.8486 -24.78918,-25.25094 -43.19701,-59.75195 -50.04513,-93.79745 -8.84987,-43.99722 -3.65501,-90.4518 14.286,-127.751213 19.22493,-39.968705 49.04433,-70.093591 88.16821,-89.07147229 53.81937,-26.10623871 122.11827,-26.10623871 175.93764,0 39.12388,18.97788129 68.94328,49.10276729 88.16822,89.07147229 24.73689,51.428093 24.73689,118.571883 0,169.999983 -29.26214,60.83607 -85.05958,100.05814 -152.84763,107.44222 -11.16341,1.21602 -36.78828,1.19192 -47.78941,-0.0449 z m 39.78941,-5.95506 c 68.05726,-7.41339 125.19685,-47.79815 154.84763,-109.44222 13.52255,-28.11344 20.13014,-61.71113 17.54056,-89.18869 -4.88797,-51.86527 -29.39265,-98.36903 -69.17761,-131.281846 -36.23961,-29.97985037 -88.32436,-47.199616 -130.68869,-43.207051 -69.63764,6.5628974 -127.76468,46.925691 -157.94834,109.677603 -13.52255,28.113434 -20.13014,61.711124 -17.54055,89.188694 4.88796,51.86526 29.39264,98.36902 69.1776,131.28184 37.2456,30.81207 89.96605,47.74529 133.7894,42.97167 z m -26.78941,-8.87713 c 0,-0.5142 0.43186,-2.07078 0.95969,-3.45907 0.83157,-2.1872 0.55086,-2.84413 -2.10272,-4.92087 l -3.06241,-2.39669 3.99351,-0.63859 c 3.43439,-0.54918 4.19951,-1.15504 5.46476,-4.32728 l 1.47125,-3.68868 1.18633,3.59461 c 1.25577,3.80504 2.60225,4.74242 6.92138,4.81843 l 2.66821,0.0469 -3.16274,2.51391 c -2.84292,2.2597 -3.07217,2.8297 -2.2671,5.63681 1.15166,4.0156 0.72252,4.33669 -2.92019,2.18489 -2.80093,-1.65455 -3.14825,-1.66066 -5.53405,-0.0974 -2.91138,1.90763 -3.61592,2.05045 -3.61592,0.73303 z m 44,-3 c 0,-0.5142 0.43186,-2.07078 0.95969,-3.45907 0.83157,-2.1872 0.55086,-2.84413 -2.10272,-4.92087 l -3.06241,-2.39669 3.99351,-0.63859 c 3.43439,-0.54918 4.19951,-1.15504 5.46476,-4.32728 l 1.47125,-3.68868 1.18633,3.59461 c 1.25577,3.80504 2.60224,4.74242 6.92137,4.81843 l 2.66821,0.0469 -3.16274,2.51391 c -2.84292,2.2597 -3.07217,2.8297 -2.2671,5.63681 1.15166,4.0156 0.72252,4.33669 -2.92018,2.18489 -2.80093,-1.65455 -3.14825,-1.66066 -5.53405,-0.0974 -2.91138,1.90763 -3.61592,2.05045 -3.61592,0.73303 z m -84.99999,-1 c 0,-0.5142 0.43186,-2.07078 0.95969,-3.45907 0.83157,-2.1872 0.55086,-2.84413 -2.10272,-4.92087 l -3.06241,-2.39669 3.99351,-0.63859 c 3.43439,-0.54918 4.19951,-1.15504 5.46476,-4.32728 l 1.47125,-3.68868 1.18633,3.59461 c 1.25577,3.80504 2.60225,4.74242 6.92137,4.81843 l 2.66821,0.0469 -3.16274,2.51391 c -2.84292,2.2597 -3.07216,2.8297 -2.2671,5.63681 1.15166,4.0156 0.72252,4.33669 -2.92018,2.18489 -2.80093,-1.65455 -3.14825,-1.66066 -5.53405,-0.0974 -2.91138,1.90763 -3.61592,2.05045 -3.61592,0.73303 z m 123.99998,-11 c 0,-0.5142 0.43186,-2.07078 0.95969,-3.45907 0.83157,-2.1872 0.55086,-2.84413 -2.10272,-4.92087 l -3.06241,-2.39669 3.99351,-0.63859 c 3.43439,-0.54918 4.19951,-1.15504 5.46476,-4.32728 l 1.47125,-3.68868 1.18633,3.59461 c 1.25577,3.80504 2.60225,4.74242 6.92138,4.81843 l 2.66821,0.0469 -3.16274,2.51391 c -2.84292,2.2597 -3.07217,2.8297 -2.2671,5.63681 1.15166,4.0156 0.72252,4.33669 -2.92019,2.18489 -2.80093,-1.65455 -3.14825,-1.66066 -5.53405,-0.0974 -2.91138,1.90763 -3.61592,2.05045 -3.61592,0.73303 z m -157.99998,-3 c 0,-0.5142 0.43186,-2.07078 0.95969,-3.45907 0.83157,-2.1872 0.55086,-2.84413 -2.10272,-4.92087 l -3.06241,-2.39669 3.99351,-0.63859 c 3.43439,-0.54918 4.19951,-1.15504 5.46476,-4.32728 l 1.47125,-3.68868 1.18633,3.59461 c 1.25577,3.80504 2.60225,4.74242 6.92138,4.81843 l 2.66821,0.0469 -3.16274,2.51391 c -2.84292,2.2597 -3.07217,2.8297 -2.2671,5.63681 1.15166,4.0156 0.72252,4.33669 -2.92019,2.18489 -2.80093,-1.65455 -3.14825,-1.66066 -5.53405,-0.0974 -2.91138,1.90763 -3.61592,2.05045 -3.61592,0.73303 z m -18.50185,-21.61258 c -5.9582,-1.51461 -10.00923,-4.80061 -12.58642,-10.2095 -1.24296,-2.60866 -4.8902,-7.5812 -8.10498,-11.0501 -23.77532,-25.65455 -38.6898,-57.6327 -43.30698,-92.85453 -12.11429,-92.413 44.22132,-172.898185 134.44186,-192.073522 11.57529,-2.4601947 14.39795,-2.6691347 36.05836,-2.6691347 21.66041,0 24.48307,0.20894 36.05836,2.6691347 72.74565,15.461245 124.97348,71.16787 134.44186,143.396772 7.02022,53.55329 -8.81363,104.49366 -44.35389,142.69446 -3.65548,3.92915 -7.5386,8.89434 -8.62913,11.03377 -1.09054,2.13942 -3.757,5.06442 -5.92546,6.5 l -3.94267,2.61013 -39.57454,0.2486 c -122.75372,0.77112 -170.69808,0.68981 -174.57637,-0.29608 z m 25.57614,-24.32577 c 1.46401,-4.5995 2.88824,-7.97213 3.16496,-7.49474 0.27672,0.4774 1.52665,4.35549 2.77761,8.61799 1.7394,5.92676 2.69488,7.75 4.06143,7.75 0.98281,0 2.01528,-0.7875 2.29437,-1.75 4.7409,-16.35003 8.18759,-26.05811 9.73155,-27.41028 3.21374,-2.81453 2.25143,-3.83971 -3.60421,-3.83971 -4.22222,0 -5.5,0.34848 -5.5,1.5 0,0.825 0.68912,1.5 1.53138,1.5 2.53537,0 2.57881,2.13508 0.2017,9.91348 l -2.26558,7.41348 -2.41378,-8.35347 c -1.73221,-5.99474 -2.08058,-8.46454 -1.23375,-8.74681 0.64902,-0.21634 1.18003,-1.03085 1.18003,-1.81001 0,-1.07693 -1.55882,-1.41667 -6.5,-1.41667 -4.88923,0 -6.5,0.3452 -6.5,1.39301 0,0.76616 0.63257,1.63575 1.4057,1.93243 2.166,0.83117 2.93666,6.38012 1.566,11.27564 -0.67739,2.4194 -1.54391,4.39891 -1.9256,4.39891 -0.38169,0 -1.77688,-3.45294 -3.10042,-7.67321 -1.78406,-5.68868 -2.08823,-7.77926 -1.17606,-8.08332 0.67671,-0.22557 1.23038,-1.04763 1.23038,-1.82679 0,-1.0873 -1.62745,-1.41667 -7,-1.41667 -6.78209,0 -8.6699,0.9661 -5.43038,2.77902 0.86329,0.48312 3.5593,6.91798 5.99114,14.29968 2.43183,7.38171 4.64914,14.01705 4.92735,14.7452 0.27821,0.72815 1.27501,1.17578 2.2151,0.99473 1.16963,-0.22525 2.5496,-2.96931 4.37108,-8.69189 z m 46.68356,5.36837 c 3.22537,-3.74971 1.39895,-5.56102 -2.08968,-2.07239 -1.4175,1.4175 -3.46558,2.57727 -4.5513,2.57727 -1.9969,0 -5.11687,-2.43265 -5.11687,-3.98964 0,-0.46573 -0.27314,-1.55859 -0.60699,-2.42857 -0.52071,-1.35696 0.47426,-1.58179 6.99999,-1.58179 7.00176,0 7.60699,-0.16308 7.60699,-2.04966 0,-6.1424 -5.99792,-10.6992 -12.6599,-9.6181 -10.0127,1.62483 -13.37818,15.52887 -5.02872,20.77545 4.66609,2.93204 12.21527,2.14393 15.44648,-1.61257 z m -12.15275,-12.24512 c 1.30891,-5.59621 5.74875,-6.67262 6.99767,-1.69653 0.8338,3.32216 -0.22338,4.44653 -4.18084,4.44653 -3.26384,0 -3.42356,-0.15593 -2.81683,-2.75 z m 84.42762,14.23307 c 7.96627,-4.11952 7.73307,-15.99366 -0.38981,-19.84823 -11.34384,-5.38299 -22.62934,4.7556 -17.13035,15.38947 2.8652,5.54069 11.28451,7.68335 17.52016,4.45876 z m -9.04745,-2.0008 c -1.88161,-2.2672 -2.3555,-11.44198 -0.74802,-14.48227 2.89968,-5.48432 7.73326,-1.42158 7.73326,6.5 0,7.17873 -3.92741,11.66672 -6.98524,7.98227 z m 37.04744,2.0008 c 7.96628,-4.11952 7.73308,-15.99366 -0.38981,-19.84823 -11.34384,-5.38299 -22.62934,4.7556 -17.13035,15.38947 2.8652,5.54069 11.28451,7.68335 17.52016,4.45876 z m -9.04745,-2.0008 c -1.88161,-2.2672 -2.3555,-11.44198 -0.74802,-14.48227 2.89968,-5.48432 7.73326,-1.42158 7.73326,6.5 0,7.17873 -3.92741,11.66672 -6.98524,7.98227 z m 23.99947,2.03611 c 1.08623,-1.30883 1.47633,-1.30883 3.34495,0 4.4498,3.11676 11.59546,1.29286 14.6661,-3.74345 4.726,-7.75136 0.499,-17.77493 -7.4958,-17.77493 -1.44732,0 -3.5019,0.46583 -4.56574,1.03518 -1.82063,0.97437 -1.93426,0.65127 -1.93426,-5.49999 0,-7.20806 0.11897,-7.11135 -7.25,-5.89333 -4.13472,0.68342 -4.8683,1.83244 -1.69904,2.66122 1.97086,0.5154 2.0392,1.12531 1.75,15.61812 -0.3035,15.20892 0.16954,17.22913 3.18379,13.59718 z m 5.60854,-2.68865 c -3.08732,-4.40777 -1.29426,-14.87847 2.67891,-15.64364 4.78052,-0.92064 4.84896,15.96258 0.0711,17.53718 -0.63619,0.20966 -1.87369,-0.64243 -2.75,-1.89354 z m -92.59328,1.67027 c 0,-0.82852 -0.88677,-1.5 -1.98095,-1.5 -2.59469,0 -3.18286,-2.6051 -2.81555,-12.47046 l 0.2965,-7.96374 10,11.6526 c 5.5,6.40894 10.7875,11.68164 11.75,11.71711 1.57968,0.0582 1.75,-1.19276 1.75,-12.85372 0,-14.29723 0.34477,-16.08178 3.10699,-16.08178 1.04115,0 1.89301,-0.675 1.89301,-1.5 0,-1.17949 -1.38889,-1.5 -6.5,-1.5 -5.11111,0 -6.5,0.32051 -6.5,1.5 0,0.825 0.6199,1.5 1.37756,1.5 2.73833,0 3.72068,2.75719 3.42018,9.59956 l -0.29774,6.77959 -8.39409,-9.68958 -8.39409,-9.68957 -5.85591,0 c -6.20978,0 -7.55018,1.27092 -3.35591,3.18195 2.44937,1.11601 2.49969,1.36365 2.48469,12.22856 -0.0159,11.51614 -0.31606,12.80419 -3.23469,13.88104 -3.80962,1.40558 -1.52469,2.70844 4.75,2.70844 5.11111,0 6.5,-0.32051 6.5,-1.5 z m 141.05397,-23.6853 c 23.35022,-31.3639 35.70078,-73.30821 32.11426,-109.06468 -4.29218,-42.79177 -21.70777,-78.141202 -53.29449,-108.174949 -22.77695,-21.657107 -51.48608,-36.482584 -83.81538,-43.2825095 -10.82194,-2.2762127 -14.97805,-2.6414397 -30.05836,-2.6414397 -15.08031,0 -19.23642,0.365227 -30.05836,2.6414397 -32.3293,6.7999255 -61.03843,21.6254025 -83.81538,43.2825095 -31.58672,30.033747 -49.00231,65.383179 -53.29449,108.174949 -3.95756,39.45558 11.18267,84.97586 39.32833,118.2437 l 6.33991,7.49372 0.28314,-10.6751 0.28313,-10.67509 -4.90633,-7.31862 c -10.43076,-15.55923 -18.02033,-33.87359 -22.30272,-53.81862 -1.92449,-8.96322 -2.25445,-13.50039 -2.25445,-30.99999 0,-17.49961 0.32996,-22.03678 2.25445,-31 6.58581,-30.6731 19.08296,-53.928813 40.62104,-75.59098 21.78058,-21.906038 45.71109,-34.859506 76.87397,-41.611495 8.64444,-1.87297 13.25876,-2.19869 31.14776,-2.19869 17.889,0 22.50332,0.32572 31.14776,2.19869 31.16288,6.751989 55.09339,19.705457 76.87397,41.611495 21.53808,21.662167 34.03523,44.91788 40.62104,75.59098 1.92449,8.96322 2.25445,13.50039 2.25445,31 0,17.4996 -0.32996,22.03677 -2.25445,30.99999 -4.42211,20.59576 -11.87394,38.28929 -23.26691,55.24467 l -5.87587,8.74468 0.0397,9.75531 0.0397,9.75533 4.62645,-5 c 2.54456,-2.75 7.20121,-8.45839 10.34812,-12.6853 z m -157.42008,-0.58608 c 0.54464,-5.21082 0.38627,-6.28364 -1.00651,-6.8181 -3.0254,-1.16096 -4.81886,1.49356 -4.06108,6.01086 1.76119,10.4989 4.01705,10.85825 5.06759,0.80724 z m 147.66532,-16.02878 c 10.1892,-15.46622 17.67831,-33.72229 21.82395,-53.19983 1.79858,-8.45031 2.23484,-13.72092 2.23484,-26.99999 0,-13.27907 -0.43626,-18.54969 -2.23484,-27 -6.36972,-29.927 -18.80836,-53.350313 -39.89008,-75.117411 -22.41236,-23.140987 -47.91783,-37.263355 -79.58532,-44.066385 -14.47472,-3.109559 -39.8208,-3.109559 -54.29552,0 -31.66749,6.80303 -57.17296,20.925398 -79.58532,44.066385 -21.08172,21.767098 -33.52036,45.190411 -39.89008,75.117411 -3.18038,14.94246 -3.18038,39.05754 0,53.99999 2.87,13.48418 7.23733,26.23953 12.74816,37.23265 4.18064,8.33962 11.0119,19.76735 11.81653,19.76735 0.20904,0 1.37473,-2.05469 2.59042,-4.56598 1.36456,-2.81881 3.76221,-5.59303 6.2659,-7.25 l 4.05555,-2.68402 106.97992,-0.26339 106.97991,-0.26338 4.40936,2.13453 c 4.80365,2.32541 8.85111,7.5108 9.88067,12.6586 0.3557,1.7785 0.77481,3.23364 0.93136,3.23364 0.15655,0 2.30062,-3.06008 4.76459,-6.80017 z m -142.29921,-38.19983 -14.5,-11.87628 -8.58876,-0.0619 c -4.72381,-0.034 -18.11131,-0.35842 -29.74999,-0.72088 -18.86892,-0.5876 -21.16124,-0.84055 -21.16124,-2.33501 0,-0.92181 4.05,-4.94982 9,-8.95113 4.95,-4.00131 9,-7.5676 9,-7.92509 0,-0.35748 -8.325,-8.96585 -18.5,-19.1297 -10.175,-10.16385 -18.5,-19.27179 -18.5,-20.23986 0,-1.61618 1.49946,-1.76014 18.33333,-1.76014 10.08334,0 18.57146,-0.23812 18.86249,-0.52915 0.29104,-0.29104 -3.24902,-12.55354 -7.86679,-27.25 -9.85513,-31.364842 -10.29276,-33.220842 -7.8332,-33.220842 0.96663,0 9.013,4.437569 17.88084,9.861259 8.86783,5.423689 28.41391,17.300813 43.43574,26.393623 l 27.31241,16.53238 43.90257,-25.89364 c 24.14641,-14.241484 44.59332,-25.893622 45.43758,-25.893622 0.84426,0 1.51655,0.7875 1.49398,1.75 -0.0226,0.962499 -3.56392,14.124998 -7.86966,29.249992 -4.30575,15.125 -7.62866,27.84894 -7.38425,28.27542 0.24442,0.42648 8.28577,0.46937 17.86967,0.0953 14.56645,-0.56854 17.42527,-0.4512 17.42527,0.7152 0,0.76743 -8.58457,9.98837 -19.07682,20.49098 l -19.07681,19.09565 8.57681,7.78662 c 4.71725,4.28264 8.57682,8.55976 8.57682,9.5047 0,1.54922 -2.07984,1.78285 -21.16124,2.37711 -11.63868,0.36245 -24.71113,0.65901 -29.04988,0.65901 l -7.88865,0 -14.90022,12.5 c -9.94423,8.34235 -15.66519,12.47942 -17.20011,12.43814 -1.39856,-0.0376 -7.98247,-4.7162 -16.79989,-11.93814 z m 10.55385,-32.08712 c 1.03052,-1.66742 -1.28721,-3.57951 -2.66672,-2.2 -1.15392,1.15392 -0.43172,3.28713 1.11287,3.28713 0.48508,0 1.18431,-0.48921 1.55385,-1.08713 z m 18,-1 c 1.03052,-1.66742 -1.28721,-3.57951 -2.66672,-2.2 -1.15392,1.15392 -0.43172,3.28713 1.11287,3.28713 0.48508,0 1.18431,-0.48921 1.55385,-1.08713 z m 21.50279,-26.9971 c 3.35952,-4.99633 5.93426,-9.25821 5.72163,-9.47083 -0.21263,-0.21263 -3.39551,1.63193 -7.07308,4.09902 -5.12999,3.44145 -7.27454,5.64609 -9.21268,9.47083 l -2.5262,4.98521 3.49105,0 c 3.28361,0 3.85402,-0.53981 9.59928,-9.08423 z m -55.55522,2.08704 c -1.58698,-3.13176 -3.92637,-5.8602 -6.26684,-7.30906 -2.05402,-1.27153 -5.50067,-3.38307 -7.65923,-4.69231 l -3.92465,-2.38044 4.32908,7.9395 c 6.10183,11.19069 5.80111,10.93486 13.28707,11.30332 l 2.76684,0.13618 -2.53227,-4.99719 z"
         id="path3587"
         inkscape:connector-curvature="0" />
      <path
         style="fill:#000000"
         d="m -595.4285,366.25938 c -90.2464,-10.14641 -160.13848,-80.10662 -169.94221,-170.10787 -6.47572,-59.44904 13.07521,-117.208182 53.62489,-158.423567 41.56134,-42.2436608 101.1634,-62.946536 162.10673,-56.30805 91.2719,9.9421397 161.28291,79.544097 171.15281,170.152807 6.47571,59.44904 -13.07522,117.20819 -53.6249,158.42357 -31.24098,31.75387 -72.18124,51.36849 -117.52791,56.30805 -11.15061,1.21462 -34.79274,1.19142 -45.78941,-0.0449 z m 39.78941,-5.95506 c 45.34667,-4.93955 86.28693,-24.55418 117.52791,-56.30805 37.5193,-38.13525 58.38911,-93.52501 53.86421,-142.95892 -4.14345,-45.26675 -22.65956,-85.592471 -53.86421,-117.309408 -38.49357,-39.1255269 -95.75267,-61.205486 -146.64208,-56.547365 -69.61617,6.3722625 -127.2554,46.193187 -157.31228,108.681539 -9.77587,20.324064 -15.32648,40.943804 -17.54449,65.175234 -4.52489,49.43391 16.34491,104.82367 53.86421,142.95892 39.40735,40.05431 97.89751,61.99514 150.10673,56.30805 z m -27.78941,-8.87713 c 0,-0.5142 0.43186,-2.07078 0.95969,-3.45907 0.83157,-2.1872 0.55086,-2.84413 -2.10272,-4.92087 l -3.06241,-2.39669 3.99351,-0.63859 c 3.43439,-0.54918 4.19951,-1.15504 5.46476,-4.32728 l 1.47125,-3.68868 1.18633,3.59461 c 1.25577,3.80504 2.60225,4.74242 6.92138,4.81843 l 2.66821,0.0469 -3.16274,2.51391 c -2.84292,2.2597 -3.07217,2.8297 -2.2671,5.63681 1.15166,4.0156 0.72252,4.33669 -2.92019,2.18489 -2.80093,-1.65455 -3.14825,-1.66066 -5.53405,-0.0974 -2.91138,1.90763 -3.61592,2.05045 -3.61592,0.73303 z m 44,-3 c 0,-0.5142 0.43186,-2.07078 0.95969,-3.45907 0.83157,-2.1872 0.55086,-2.84413 -2.10272,-4.92087 l -3.06241,-2.39669 3.99351,-0.63859 c 3.43439,-0.54918 4.19951,-1.15504 5.46476,-4.32728 l 1.47125,-3.68868 1.18633,3.59461 c 1.25577,3.80504 2.60224,4.74242 6.92137,4.81843 l 2.66821,0.0469 -3.16274,2.51391 c -2.84292,2.2597 -3.07217,2.8297 -2.2671,5.63681 1.15166,4.0156 0.72252,4.33669 -2.92018,2.18489 -2.80093,-1.65455 -3.14825,-1.66066 -5.53405,-0.0974 -2.91138,1.90763 -3.61592,2.05045 -3.61592,0.73303 z m -84.99999,-1 c 0,-0.5142 0.43186,-2.07078 0.95969,-3.45907 0.83157,-2.1872 0.55086,-2.84413 -2.10272,-4.92087 l -3.06241,-2.39669 3.99351,-0.63859 c 3.43439,-0.54918 4.19951,-1.15504 5.46476,-4.32728 l 1.47125,-3.68868 1.18633,3.59461 c 1.25577,3.80504 2.60225,4.74242 6.92137,4.81843 l 2.66821,0.0469 -3.16274,2.51391 c -2.84292,2.2597 -3.07216,2.8297 -2.2671,5.63681 1.15166,4.0156 0.72252,4.33669 -2.92018,2.18489 -2.80093,-1.65455 -3.14825,-1.66066 -5.53405,-0.0974 -2.91138,1.90763 -3.61592,2.05045 -3.61592,0.73303 z m 123.99998,-11 c 0,-0.5142 0.43186,-2.07078 0.95969,-3.45907 0.83157,-2.1872 0.55086,-2.84413 -2.10272,-4.92087 l -3.06241,-2.39669 3.99351,-0.63859 c 3.43439,-0.54918 4.19951,-1.15504 5.46476,-4.32728 l 1.47125,-3.68868 1.18633,3.59461 c 1.25577,3.80504 2.60225,4.74242 6.92138,4.81843 l 2.66821,0.0469 -3.16274,2.51391 c -2.84292,2.2597 -3.07217,2.8297 -2.2671,5.63681 1.15166,4.0156 0.72252,4.33669 -2.92019,2.18489 -2.80093,-1.65455 -3.14825,-1.66066 -5.53405,-0.0974 -2.91138,1.90763 -3.61592,2.05045 -3.61592,0.73303 z m -157.99998,-3 c 0,-0.5142 0.43186,-2.07078 0.95969,-3.45907 0.83157,-2.1872 0.55086,-2.84413 -2.10272,-4.92087 l -3.06241,-2.39669 3.99351,-0.63859 c 3.43439,-0.54918 4.19951,-1.15504 5.46476,-4.32728 l 1.47125,-3.68868 1.18633,3.59461 c 1.25577,3.80504 2.60225,4.74242 6.92138,4.81843 l 2.66821,0.0469 -3.16274,2.51391 c -2.84292,2.2597 -3.07217,2.8297 -2.2671,5.63681 1.15166,4.0156 0.72252,4.33669 -2.92019,2.18489 -2.80093,-1.65455 -3.14825,-1.66066 -5.53405,-0.0974 -2.91138,1.90763 -3.61592,2.05045 -3.61592,0.73303 z m -13.75093,-20.76123 c -0.41199,-0.10788 -2.66748,-0.68931 -5.0122,-1.29208 -5.47786,-1.40823 -10.58163,-5.91691 -12.70493,-11.22357 -0.92127,-2.30248 -4.35147,-7.04744 -7.62265,-10.54435 -28.99466,-30.99538 -44.90928,-72.18902 -44.90928,-116.24385 0,-82.453323 55.51374,-150.448745 136.94162,-167.731478 11.47822,-2.4362057 14.49358,-2.6654617 35.05836,-2.6654617 20.56478,0 23.58014,0.229256 35.05836,2.6654617 81.42788,17.282733 136.94162,85.278155 136.94162,167.731478 0,44.33779 -16.01446,85.51958 -45.4133,116.78202 -3.47462,3.69488 -7.25833,8.57385 -8.40824,10.84217 -2.60136,5.13144 -7.11936,9.01352 -12.02843,10.33539 -3.07956,0.82924 -204.88443,2.13409 -207.90093,1.34427 z m 20.81533,-24.31434 c 1.27307,-4.40575 2.63741,-7.66825 3.03188,-7.25 0.39447,0.41826 1.68649,4.05069 2.87116,8.07207 1.84395,6.25933 2.44874,7.26675 4.20237,7 1.69644,-0.25806 2.79279,-2.7122 6.38015,-14.28175 2.38244,-7.68358 5.03333,-14.48318 5.89087,-15.11023 3.05077,-2.23078 1.68073,-3.41961 -3.94083,-3.41961 -4.22222,0 -5.5,0.34848 -5.5,1.5 0,0.825 0.675,1.5 1.5,1.5 2.01137,0 1.85269,5.05927 -0.35519,11.32471 l -1.70018,4.82472 -2.28075,-7.75226 c -2.03097,-6.90326 -2.11008,-7.84777 -0.72232,-8.6244 3.22843,-1.80673 1.33257,-2.77277 -5.44156,-2.77277 -5.55556,0 -7,0.30952 -7,1.5 0,0.825 0.4151,1.5 0.92245,1.5 2.02329,0 3.23924,6.72827 1.97721,10.94057 -0.66893,2.23268 -1.50643,4.05942 -1.86111,4.05942 -0.35469,0 -1.68126,-3.21786 -2.94795,-7.1508 -2.08012,-6.45853 -2.14757,-7.2378 -0.69683,-8.04968 3.332,-1.86468 1.36391,-2.79951 -5.89377,-2.79951 -6,0 -7.5,0.3 -7.5,1.5 0,0.825 0.64316,1.5 1.42923,1.5 0.96479,0 2.96966,4.8745 6.16947,14.99999 4.2239,13.3661 4.98046,15 6.94564,15 1.89769,0 2.52836,-1.11767 4.52006,-8.01047 z m 46.01251,5.08739 c 1.6077,-1.60769 2.92308,-3.40769 2.92308,-4 0,-1.67422 -2.98987,-1.26689 -3.66777,0.49968 -0.33275,0.86714 -1.72937,2.00409 -3.10359,2.52657 -3.34824,1.273 -7.22863,-1.21041 -7.22863,-4.62622 0,-2.40003 0.21737,-2.47695 6.99999,-2.47695 l 7,0 0,-3.07692 c 0,-4.7063 -4.71282,-8.92308 -9.97274,-8.92308 -5.51217,0 -9.40713,2.17342 -11.39241,6.35708 -2.02745,4.27254 -2.06239,6.91545 -0.14055,10.63188 2.21468,4.28271 5.32143,6.01104 10.80514,6.01104 4.03206,0 5.34958,-0.49517 7.77748,-2.92308 z m -11.07691,-12.49513 c 0,-4.91723 4.36628,-6.37878 6.02474,-2.01669 1.33773,3.5185 1.39918,3.4349 -2.52475,3.4349 -2.35473,0 -3.49999,-0.46406 -3.49999,-1.41821 z m 87.14863,11.57787 c 3.30604,-3.7001 3.90825,-10.20572 1.29065,-13.94287 -4.79185,-6.84132 -17.08673,-6.84132 -21.87859,0 -0.85838,1.22552 -1.5607,4.19809 -1.5607,6.60572 0,3.67397 0.56552,4.94301 3.51883,7.89632 3.40127,3.40127 3.72361,3.50402 9.64865,3.07544 5.35547,-0.38738 6.49002,-0.84653 8.98116,-3.63461 z m -12.81561,-1.90966 c -0.38778,-1.5125 -0.70506,-4.1 -0.70506,-5.75 0,-5.78999 1.22175,-8.5 3.83207,-8.5 3.15453,0 3.67526,0.99971 3.79195,7.2799 0.13413,7.219 -0.84374,9.7201 -3.80033,9.7201 -1.79538,0 -2.59414,-0.70435 -3.11863,-2.75 z m 40.81561,1.90966 c 3.30604,-3.7001 3.90825,-10.20572 1.29065,-13.94287 -4.79186,-6.84132 -17.08674,-6.84132 -21.8786,0 -0.85838,1.22552 -1.5607,4.19809 -1.5607,6.60572 0,3.67397 0.56552,4.94301 3.51883,7.89632 3.40127,3.40127 3.72361,3.50402 9.64865,3.07544 5.35547,-0.38738 6.49002,-0.84653 8.98117,-3.63461 z m -12.81562,-1.90966 c -0.38778,-1.5125 -0.70506,-4.1 -0.70506,-5.75 0,-5.78999 1.22175,-8.5 3.83207,-8.5 3.15453,0 3.67526,0.99971 3.79195,7.2799 0.13413,7.219 -0.84374,9.7201 -3.80033,9.7201 -1.79538,0 -2.59414,-0.70435 -3.11863,-2.75 z m 24.65172,4.26838 c 1.08623,-1.30883 1.47633,-1.30883 3.34495,0 1.16342,0.81489 3.86018,1.48162 5.99281,1.48162 3.07636,0 4.57996,-0.70247 7.27749,-3.4 2.99099,-2.99099 3.4,-4.02278 3.4,-8.57692 0,-4.38853 -0.44516,-5.62208 -2.92308,-8.1 -2.22548,-2.22548 -3.84831,-2.92308 -6.8,-2.92308 -2.1323,0 -4.41692,0.54 -5.07692,1.2 -0.93333,0.93333 -1.2,-0.28889 -1.2,-5.49999 l 0,-6.7 -3.91821,0 c -2.15502,0 -4.63002,0.27314 -5.5,0.60699 -2.25845,0.86665 -1.95439,3.06231 0.51344,3.70766 2.02657,0.52996 2.08391,1.0253 1.75,15.11737 -0.34827,14.69789 0.13393,16.70785 3.13952,13.08635 z m 5.44294,-2.63538 c -1.47307,-2.38348 -0.85774,-12.88152 0.85545,-14.59472 3.44426,-3.44425 6.60093,4.07691 4.91547,11.71172 -0.80939,3.66634 -4.23051,5.37544 -5.77092,2.883 z m -92.42768,1.617 c 0,-0.825 -0.68614,-1.5 -1.52475,-1.5 -2.38382,0 -3.57943,-4.66693 -3.26429,-12.74174 l 0.28904,-7.40615 10,11.5716 c 5.64591,6.53322 10.76197,11.57263 11.75,11.57395 1.57395,0.002 1.75,-1.2618 1.75,-12.5634 0,-12.6224 0.81997,-16.43425 3.53518,-16.43425 0.80565,0 1.46482,-0.675 1.46482,-1.5 0,-1.17949 -1.38889,-1.5 -6.5,-1.5 -5.11111,0 -6.5,0.32051 -6.5,1.5 0,0.825 0.68614,1.5 1.52475,1.5 2.21388,0 3.60781,4.57068 3.26972,10.72141 l -0.29447,5.35729 -8.26648,-9.53935 -8.26648,-9.53935 -5.98352,0 c -6.34172,0 -8.05856,1.61538 -3.73352,3.51287 2.0932,0.91834 2.26986,1.70147 2.53499,11.23749 0.29016,10.43636 -0.59834,14.24963 -3.32017,14.24963 -0.80565,0 -1.46482,0.675 -1.46482,1.5 0,1.17949 1.38889,1.5 6.5,1.5 5.11111,0 6.5,-0.32051 6.5,-1.5 z m 140.56833,-21.99999 c 20.7696,-27.62275 33.43165,-64.92906 33.43165,-98.49999 0,-10.57664 -2.44795,-28.6586 -5.43414,-40.1396 -16.32393,-62.760631 -66.44661,-109.859395 -131.50748,-123.5735995 -10.98229,-2.3149617 -14.8801,-2.6471817 -31.05836,-2.6471817 -16.17826,0 -20.07607,0.33222 -31.05836,2.6471817 -72.81342,15.3483645 -125.95346,71.9932175 -135.44186,144.3748195 -1.89418,14.44961 -1.89418,24.22715 0,38.67675 4.28992,32.72534 17.4335,62.51869 38.66964,87.65481 l 6.33059,7.4932 0.28117,-11.67751 0.28116,-11.6775 -4.90436,-7.31569 c -10.43295,-15.56251 -18.02633,-33.89016 -22.29653,-53.81569 -3.26255,-15.22364 -3.26255,-44.77634 0,-59.99999 6.37326,-29.73879 18.82409,-53.317703 39.39502,-74.604811 21.8179,-22.577467 47.58436,-36.778655 79.09577,-43.593634 14.7317,-3.186024 45.56382,-3.186024 60.29552,0 31.51141,6.814979 57.27787,21.016167 79.09577,43.593634 20.57093,21.287108 33.02176,44.866021 39.39502,74.604811 1.89774,8.85519 2.25023,13.55464 2.25023,30 0,16.44535 -0.35249,21.1448 -2.25023,29.99999 -4.40984,20.5771 -11.86557,38.28312 -23.26269,55.24467 l -5.87587,8.74468 0.0397,10.75531 0.0397,10.75533 4.6128,-5 c 2.53705,-2.75 6.98131,-8.15 9.87613,-11.99999 z m -156.772,-0.68027 c 1.27964,-6.8809 0.44095,-9.14056 -3.19861,-8.61799 -2.65928,0.38182 -3.01709,2.46119 -1.59898,9.2922 1.52409,7.3415 3.35475,7.08424 4.79759,-0.67421 z m 147.50288,-16.6199 c 10.1835,-15.45757 17.66846,-33.6988 21.8296,-53.19983 1.83531,-8.60111 2.2405,-13.66481 2.2405,-27.99999 0,-14.33518 -0.40519,-19.39889 -2.2405,-28 -6.33373,-29.68277 -18.8071,-53.310203 -39.38528,-74.604811 -21.82393,-22.583707 -47.64286,-36.810775 -79.09577,-43.584355 -14.56928,-3.137579 -41.72624,-3.137579 -56.29552,0 -31.45291,6.77358 -57.27184,21.000648 -79.09577,43.584355 -20.57818,21.294608 -33.05155,44.922041 -39.38528,74.604811 -1.83531,8.60111 -2.2405,13.66482 -2.2405,28 0,19.45909 1.75518,30.50336 7.54882,47.49999 4.62937,13.58106 17.21152,37.5 19.72623,37.5 0.46435,0 1.12469,-1.40211 1.46743,-3.11581 0.84029,-4.20145 7.24747,-10.40793 12.14939,-11.76881 5.5989,-1.55438 208.35598,-1.55438 213.95488,0 5.53602,1.53693 11.11941,7.39797 12.58243,13.20814 0.64765,2.57206 1.30846,4.67648 1.46847,4.67648 0.16,0 2.3069,-3.06008 4.77087,-6.80017 z m -141.29921,-39.19983 -14.5,-11.87628 -8.5,-0.0643 c -27.58921,-0.20875 -51.99999,-1.43954 -51.99999,-2.62184 0,-0.68416 4.275,-4.71772 9.5,-8.96346 5.225,-4.24574 9.5,-8.00625 9.5,-8.35669 0,-0.35043 -8.55,-9.17827 -19,-19.61741 -10.45,-10.43914 -19,-19.5472 -19,-20.24013 0,-0.96895 4.38728,-1.25987 19,-1.25987 10.45,0 19,-0.27022 19,-0.60048 0,-0.33026 -4.05,-13.58463 -9,-29.45414 -4.95,-15.869514 -9,-29.324292 -9,-29.899512 0,-2.08916 2.53635,-0.87281 18.37667,8.812889 33.98547,20.780693 69.40669,42.120883 70.80338,42.656843 0.8404,0.32249 20.14434,-10.46239 45.60358,-25.4782 24.28048,-14.320564 44.61208,-26.037392 45.18134,-26.037392 0.56926,0 1.03501,0.43585 1.03501,0.96855 0,0.5327 -3.34076,12.795198 -7.42392,27.249992 -4.08316,14.4548 -7.73975,27.55009 -8.12577,29.10064 l -0.70186,2.81919 18.12578,-0.71548 c 11.37407,-0.44897 18.12577,-0.35896 18.12577,0.24164 0,0.52641 -8.55,9.46418 -19,19.86171 -10.45,10.39753 -19,19.42736 -19,20.06628 0,0.63892 3.825,4.63428 8.5,8.87855 4.675,4.24429 8.5,8.29806 8.5,9.00837 0,1.00966 -6.48162,1.45352 -29.70246,2.034 l -29.70244,0.74252 -14.74766,12.37201 c -8.1112,6.80461 -15.3326,12.34417 -16.04754,12.31015 -0.71494,-0.034 -7.82489,-5.40619 -15.79989,-11.93814 z m 10,-32.99999 c 0,-1.33333 -0.66667,-2 -2,-2 -1.33333,0 -2,0.66667 -2,2 0,1.33333 0.66667,2 2,2 1.33333,0 2,-0.66667 2,-2 z m 18,-1 c 0,-1.33333 -0.66667,-2 -2,-2 -1.33333,0 -2,0.66667 -2,2 0,1.33333 0.66667,2 2,2 1.33333,0 2,-0.66667 2,-2 z m 21.12369,-25.76569 c 7.88218,-12.24203 7.80203,-12.06073 4.33763,-9.81293 -11.94904,7.75283 -13.17217,8.80377 -15.26871,13.11906 -1.20593,2.48219 -2.19261,4.72602 -2.19261,4.98631 0,0.26029 1.6875,0.46619 3.75,0.45756 3.61293,-0.0151 3.95556,-0.33494 9.37369,-8.75 z m -53.12369,6.29244 c 0,-0.26029 -1.00396,-2.5397 -2.23102,-5.06536 -1.81202,-3.72968 -3.61819,-5.43429 -9.61711,-9.07632 -4.06234,-2.4663 -7.56791,-4.30236 -7.79015,-4.08013 -0.54169,0.54169 8.69107,16.99627 10.06049,17.92975 1.1773,0.80252 9.57779,1.05868 9.57779,0.29206 z"
         id="path3585"
         inkscape:connector-curvature="0" />
    </g>
  </g>
</svg>
